<?xml version="1.0" encoding="UTF-8"?>
<svg version="1.1" viewBox="0 0 1600 1074" width="1280" height="1280" xmlns="http://www.w3.org/2000/svg">
<path transform="translate(617,43)" d="m0 0h17l14 2 16 8 14 11 143 143 11 8 7-6 10-11 106-106 1-2h2l2-4 12-11 8-9 11-9 14-9 7-3 13-2h18l13 2 16 8 10 8 12 11 42 42 10 13 11 10 11 9 172 172 7 8 37 37 8 7 5 6 8 7 10 10 5 6 8 7 16 17 31 31 8 7 9 10 8 7 8 8 6 7 5 4 9 11 9 14 5 11 2 10v16l-2 14-6 12-11 17-10 10-5 4-9 11-11 9-14 15-8 7-3 1-2 4-13 13-3 1-1-6h-2l1 6 1 2-5 4-8 11-5 6-8 7-14 15-8 6-9 11-12 11-19 19-8 7-11 12-7 7-7 6-8 10-11 9-9 11-11 9-11 11-5 6-8 7-7 7-7 8-7 7-7 6-8 10-11 9-11 13-11 9-12 13-7 7-8 7-9 11-13 12-12 13-8 7-15 16-8 7-13 13-10 9-13 8-11 4-7 1h-27l-13-3-13-8-13-11-28-28-4-5-8-7-58-58-7-8-37-37-7-5-6 2-7 6-7 8-12 12-7 8-40 40-7 8-12 11-56 56-13 10-10 6-6 2-8 1h-28l-14-3-16-10-15-14-9-10-15-14-11-12-7-6-10-14-8-7-6-4-43-43-5-4-7-8-38-38-7-8-43-43-7-8-9-8-7-8-77-77-8-7-15-16-8-7-92-92-10-15-6-12-3-12v-16l4-16 6-12 8-11 9-11 42-42 8-7 12-11 7-6 3 1 1-4 11-14 9-10 8-7 7-8 78-78 8-7 7-8 24-24 8-7 34-34 4-5 8-7 78-78 7-8 8-7 9-9 5-6 8-7 7-7 7-8 12-11 13-13 18-13 7-4zm405 120-9 10-11 11-7 9-8 7-8 8-7 8-10 9-11 12-29 29-11 9-3 4-4 8 2 5 5 6 8 7 20 20 7 8 26 26h2l2 4 33 33 8 7 9 9 7 8 72 72 8 7 10 12 10 18 3 12v25l-3 10-8 15-10 13-45 45-11 8-10 13-24 24-4 5-8 7-10 9-11 12-8 7-9 10-10 9-7 8-7 7-5 4-14 16v2l-4 2-15 13-8 10-2 3 1 4 8 9 8 7 7 6 5 5 9 10 8 7 62 62 8 7 5 5 6-7 8-7 23-23 5-4 7-8 7-7 8-7 7-8 14-14 5-4 7-8 7-7 8-7 11-12 11-10 7-8 16-15 7-8 8-8 8-7 15-16 8-7 12-13 13-12 7-8 13-12 9-10 17-16 9-10 12-11 11-12 8-7 30-30 7-8 14-13 7-8 16-16-284-284-8-7-95-95zm-385 3-10 9-9 8-7 8-45 45v2l-3 1v2l-4 2-29 29-6 5-7 8-11 10-7 8-7 7-8 7-12 13-9 9-8 7-71 71-7 8-10 9-66 66-7 8-37 37-4 3-6 2 6 7 207 207 8 7 83 83 8 7 49 49h2l2 4 11 11 8 7 7 10 5-5 7-8 96-96 8-7 4-5-1-5-6-8-206-206-10-13-8-15-2-6-1-7v-17l3-12 10-19 8-10 9-10 4-3v-2l4-2 8-8 7-8 20-18 7-6 6-8 9-10 5-4 7-8 21-21 8-7 9-10 8-7 10-11 8-7 62-62 1-5-4-6-6-7-8-7-91-91-8-7zm191 193-10 9-7 9-10 8-9 11-15 14-9 11-15 14-8 9-11 9-8 8-7 8-12 11-7 8-15 14-9 11-12 11-9 11-20 16 3 5 30 30 8 7 15 16 44 44 8 7 9 10 71 71 8 6 4-1 12-14 4-5 11-9 9-10 55-55 8-7 11-12 11-10 7-8 11-10 7-8 5-6 5-4 5-5 9-10 16-16 6-4-6-7-10-9-57-57-4-5-8-7-77-77-6-7-8-7-9-9-7-8z" fill="#2F778F"/>
<path transform="translate(805,192)" d="m0 0 7 6 9 9 14 10 7 8 36 36 8 7 7 7 7 8 3 1 1-2h3l-2 7 6 8 8 7 21 21 7 8 62 62 8 7 10 10 7 8 71 71 8 7 11 13 10 18 3 12v25l-3 10-8 15-10 13-46 46-10 7-2-1 3-4 1-14v-29l-4-11-5-10-4-6-1-4-3-3-4-6-15-14-1-4-16-15-38-38v-2l-4-2-103-103-5-6-8-7-10-10-6-7-7-1-9 8-7 9-9 8h-2l-2 4-11 12-10 9-9 11-16 15-8 9-11 9-7 7-7 8-12 11-7 8-15 14-9 11-13 12-9 11-10 8-9 7 3 5 12 12 5 4 7 8 16 15 12 13 44 44 8 7 11 12 69 69 12 9 9 10 8 7 13 11v3h2l5 6 2 1 1 6-4 8-4 2-3 5-3 1-2 6-9 11-10 9-4 6-11 8-11 13-3 8-4-2-12-12-8-7-12-12-9-11-8-6-6-10-208-208-10-13-8-15-2-6-1-7v-17l3-12 10-19 8-10 10-11 8-7 7-7 7-8 12-11 9-8 6-5 6-8 9-10 5-4 7-8 22-22 8-7 7-8 12-11 8-9 8-7 61-61 1-5-4-6-5-6-8-7-16-16 4-2 10 8h7l5-1v-2l5-3 11-9h2l2-4 8-7 7-8h2v-2l3-3 6-8h2v-2h2l6-12z" fill="#FBD72A"/>
<path transform="translate(1025,43)" d="m0 0h18l13 2 16 8 10 8 12 11 42 42 10 13 11 10 11 9 172 172 7 8 37 37 8 7 5 6 8 7 10 10 5 6 8 7 16 17 31 31 8 7 9 10 8 7 8 8 6 7 5 4 9 11 9 14 5 11 2 10v16l-2 14-6 12-11 17-10 10-5 4-9 11-11 9-14 15-8 7-3 1-2 4-13 13-3 1-2-7h3l1-16v-31l-2-11-9-22-9-16-11-13-8-6 1-3-283-283-8-7-98-98-7 8-12 12-8 10-8 7-7 7-7 8-12 11-7 8-32 32-11 9-3 6h-4l-1 3-4-2-16-17-13-12-35-35v-2h-2l2-4 7-7 9-11 10-9 94-94 1-2h2l2-4 12-11 8-9 11-9 14-9 7-3z" fill="#306779"/>
<path transform="translate(617,43)" d="m0 0h17l14 2 16 8 14 11 127 127 2 6h-2l-1 5-4 6h-2v2h-2l-2 4-5 7h-2v2l-5 5-3 1-2 4-8 7-5 5-11 9h-3v2l-5 2h-7l-10-8h-5l-74-74-8-7-4-2-10 9-8 7-7 8-45 45-4 5-8 7-8 8h-2l-2 4-13 13-5 4-7 8-26 26-8 7-11 12-10 10-8 7-70 70-7 8-12 11-64 64-7 8-32 32-4 5-6 4-5-1-9-12-3-3v-2h-2l-5-9-4-6-7-20-3-12v-39l4-16 3-9 7-9 8-9 8-7 7-8 78-78 8-7 7-8 24-24 8-7 34-34 4-5 8-7 78-78 7-8 8-7 9-9 5-6 8-7 7-7 7-8 12-11 13-13 18-13 7-4z" fill="#B43033"/>
<path transform="translate(1408,555)" d="m0 0 5 1 8 7 11 14 9 17 7 18 2 11v31l-2 16-3 1-1 3 2 5-5 4-8 11-5 6-8 7-14 15-8 6-9 11-12 11-19 19-8 7-11 12-7 7-7 6-8 10-11 9-9 11-11 9-11 11-5 6-8 7-7 7-7 8-7 7-7 6-8 10-11 9-11 13-11 9-12 13-7 7-8 7-9 11-13 12-12 13-8 7-15 16-8 7-13 13-10 9-13 8-11 4-7 1h-27l-13-3-13-8-13-11-28-28-4-5-8-7-34-34-2-6-3-7 1-5 4-7 8-12 6-8 14-15 7-7 22-11 5 1 1 3 4 1 1 3 6 4 4 4 5 3 21 21 8 7 5 5 6-7 8-7 42-42 7-6 7-8 34-34 8-7 9-10 12-11 7-8 7-7 8-7 9-10 8-8 8-7 15-16 8-7 11-12 13-12 7-8 14-13 7-8 8-8 8-7 12-13 12-11 11-12 8-7 29-29 7-8 14-13 7-8z" fill="#B53033"/>
<path transform="translate(1024,554)" d="m0 0 4 2 16 15 2 6 3 1 3 7 4 7 5 10 2 7v29l-1 14-3 5-4 7-11 12-18 18-5 6-8 7-10 9-11 12-8 7-7 8-40 40-5 7-11 9-10 9-7 10 1 4 7 8 16 14v2l4 2 9 10 8 7 38 38-2 1-5-5-7-5v-2l-3-1-2-3-6 1-14 7-8 5-13 13-7 8-8 12-7 10-2 6 1 6 3 4-1 4-23-23-7-8-37-37-7-5-6 2-7 6-7 8-12 12-7 8-40 40-7 8-12 11-56 56-13 10-10 6-6 2-8 1h-28l-14-3-16-10-15-14-9-10-15-14-11-12-7-6-10-14-6-7 4 2 4 1v2l16 1h35l15-2 12-5 14-8 7-6 15-10 4-6 3 1 7-9 38-38 4-5 8-7 37-37 4-5 8-7 10-9 4-4 10 8 11 13 13 13 8 7 8 8 2 1 3-9 12-14 8-6h2l2-4 6-7 8-7 7-10 2-4 4-3 2-4 4-2 3-8v-5l-4-2-3-3v-2h-2l-2-4-11-9-14-13-5-7 9-10 9-11 11-9 7-8 57-57 8-7 9-10 12-11 7-8 11-10 7-8 6-7 5-5 5-4 7-8 18-18z" fill="#3A926E"/>
<path transform="translate(601,448)" d="m0 0 1 4-2 6-1 9v26l4 12 8 16 9 15 7 6 9 9 3 5 12 12 5 4 7 8 16 15 12 13 44 44 8 7 11 12 69 69 12 9 9 10 8 7 13 11v3h2l5 6 2 1 1 6-4 8-4 2-3 5-3 1-2 6-9 11-10 9-4 6-11 8-11 13-3 8-4-2-12-12-8-7-12-12-9-11-8-6-6-10-208-208-10-13-8-15-2-6-1-7v-17l3-12 10-19 8-10 10-11 8-7 7-7 7-8 12-11 9-8z" fill="#FBD72A"/>
<path transform="translate(1341,321)" d="m0 0 7 6 36 36 8 7 5 6 8 7 10 10 5 6 8 7 16 17 31 31 8 7 9 10 8 7 8 8 6 7 5 4 9 11 9 14 5 11 2 10v16l-2 14-6 12-11 17-10 10-5 4-9 11-11 9-14 15-8 7-3 1-2 4-13 13-3 1-2-7h3l1-16v-31l-2-11-9-22-9-16-11-13-8-6 1-3-10-10-3-5-14-15-7-8-13-13-7-8-8-7-7-8-29-29-8-7-46-46h3l6 3v-4l11-2 1-4 12-5 11-9 8-6 1-2h2l1-3 10-8 6-4 3-3 4-3 4 1 1-2 1-1v-7l1-3-3-3-2-6z" fill="#179BC7"/>
<path transform="translate(221,421)" d="m0 0 1 2-6 22v39l4 14 4 13 4 8 6 10v2h2l1 4 3 1 8 10v2h2v2l-2 1 160 160-1 2-9-9-10-1-13-3-2 1-2 3-1 4-3 4 2 1-9 9-3-1-2 4-6 8h-2l-1 3-7 3-9 10-10 5-7 2h-8l-6-2-7-2-7-6-5-5-5-3-16-16-8-7-15-16-8-7-92-92-10-15-6-12-3-12v-16l4-16 6-12 8-11 9-11 42-42 8-7 12-11 7-6 3 1 1-4z" fill="#179BC7"/>
<path transform="translate(1171,796)" d="m0 0 2 1v18l-1 9h3l1 4-2 4 3 4-1 3h-2v7l-3 2v9l2 1v9l1 3 9 3 3 7 1 6 3-1-2 10-2 7-3 7-2 7-5 8-7 1-1 7-5 4-1 2h-2l-2 4-12 14-3 1-2 4-3 1v2l-11 8-5 5-6 8-5 7h-2l-2 4-7 9-7 8-3 3-2 7 3-3 9-5 5-3h2l3-1-1 3-8 6h-2l-1 3-8 7h-2l-1 3-4 1-2 4-5 7-6 4-1 5-11 5-11 2h-27l-13-3-13-8-13-11-28-28-4-5-8-7-34-34-2-6-3-7 1-5 4-7 8-12 6-8 14-15 7-7 22-11 5 1 1 3 4 1 1 3 6 4 4 4 5 3 21 21 8 7 5 5 6-7 8-7 42-42 7-6 7-8 34-34 8-7 12-11 20-20z" fill="#C72B33"/>
<path transform="translate(1025,43)" d="m0 0h18l13 2 16 8 10 8 12 11 42 42 10 13 6 7-5-2-16-2v-2h-36l-16 3-13 5h-2v2l-5 1v2l-12 7-9 7-11 9-2 3-3-3-7 8-12 12-8 10-8 7-7 7-7 8-12 11-7 8-32 32-11 9-3 6h-4l-1 3-4-2-16-17-13-12-35-35v-2h-2l2-4 7-7 9-11 10-9 94-94 1-2h2l2-4 12-11 8-9 11-9 14-9 7-3z" fill="#3A926E"/>
<path transform="translate(617,43)" d="m0 0h17l14 2 16 8 14 11 18 18 2 8h2l2 3 1 9-1 4-9-3-5-3-8-1-9 1v7l-2 4v2l3 1-2 6-4 10-7 7-10 7-11 7-13 11-9 4-6 2-11 9-5 3-8 10-7 10-6 7-5 5-6 5-6 7-10 7-8 4-5 1-7 4-3 3-9 4-6 2v-3l-4 1v2l-14-1h-18v3l-7 1h-11l-1 2-10-3-10-6-2-2h-13l-7-1-10 4h-3l11-11h2v-6l4-5 8-7 78-78 7-8 8-7 9-9 5-6 8-7 7-7 7-8 12-11 13-13 18-13 7-4z" fill="#C72B33"/>
<path transform="translate(1024,554)" d="m0 0 4 2 16 15 2 6 3 1 3 7 4 7 5 10 2 7v29l-1 14-3 5-4 7-11 12-18 18-5 6-8 7-10 9-11 12-8 7-7 8-40 40-5 7-11 9-10 9-4 5h-3l-1 3-5-1-12-14v-2h-2l-5-5-5-4v-3l-4-2-3-3v-2h-2l-2-4-11-9-14-13-5-7 9-10 9-11 11-9 7-8 57-57 8-7 9-10 12-11 7-8 11-10 7-8 6-7 5-5 5-4 7-8 18-18z" fill="#304E40"/>
<path transform="translate(758,287)" d="m0 0 1 3 4 2 8 8 3 5 36 36 8 7 6 7 4 3-2 4-7 6-7 9-9 8h-2l-2 4-11 12-10 9-9 11-16 15-8 9-11 9-7 7-7 8-12 11-7 8-15 14-9 11-13 12-9 11-10 8-8 6-5-2-5-5-8-7-12-20-7-16-2-7v-26l2-12 3-9 6-8 9-10 5-4 7-8 22-22 8-7 7-8 12-11 8-9 8-7 61-61z" fill="#304E40"/>
<path transform="translate(528,837)" d="m0 0 6 2 8 8 5 2 15 14 61 61 8 7 4 5 1 6-5 6-16 10-5 5-14 8-12 5-15 2h-35l-13-1-3-1v-2l-5-1-10-5-45-45 1-2 2 1-8-12 1-7h2l2-4 10-9 1-2h2l2-5 8-10 6-9 8-7 5-4 15-9z" fill="#0F1517"/>
<path transform="translate(1095,127)" d="m0 0h25l11 1v2l16 1 8 4 10 9 8 7 27 27 1 5h2l3 5v10l-4 8-6 10-6 9-12 11-8 6-13 11-5 6-11 8-8 1h-3l5 6-4-2-13-12-92-92 1-5 11-9 12-9 7-4h2v-2l5-1v-2l15-6z" fill="#161F21"/>
<path transform="translate(805,192)" d="m0 0 7 6 9 9 14 10 7 8 36 36 8 7 7 7 7 8 3 1 1-2h3l-2 5-2 3 7 9-1 3-8-1-10-1-4 1-1 2-5 3-11 7-4 5h-2l-2 4-3 1-1 3h-2v2l-5 5-7 10-1 4h-2l1 4-3 9-11-1-9-8-7-8-8-7-33-33-3-5-5-5-4-3-5-9-6-7-8-7-16-16 4-2 10 8h7l5-1v-2l5-3 11-9h2l2-4 8-7 7-8h2v-2l3-3 6-8h2v-2h2l6-12z" fill="#A9954E"/>
<path transform="translate(1025,43)" d="m0 0h18l13 2 16 8 10 8 12 11 42 42 10 13 6 7-5-2-4-5-6-2-16-1-11-1h-20l-12 2-14 6-11 5-4 1v2l-11 5-16 8-7 4-9-1-13-1-9-7-9-6 2-4-7 2-2-1v-2l-4-2-5-5-3-2v-2l-9-3-6-1-1-7 1-5-27 27-2-1 43-43 1-2h2l2-4 12-11 8-9 11-9 14-9 7-3z" fill="#36A778"/>
<path transform="translate(641,938)" d="m0 0 4 1 2 3 8 1 6 5 2 4 2-1 3 2 3 7h4l4 1 1 5 5 5 1 3 4 2 1 4-2 5 1 3h5l1 1v6l-2 1-1 3h3l1 3v3 2l3-1 4 2 5-1 7-6 2 1-40 40-13 10-10 6-6 2-8 1h-28l-14-3-16-10-15-14-9-10-15-14-11-12-7-6-10-14-6-7 4 2 4 1v2l16 1h35l15-2 12-5 14-8 7-6 15-10 4-6 3 1z" fill="#35A677"/>
<path transform="translate(1408,555)" d="m0 0 5 1 8 7 11 14 9 17 7 18 2 11v31l-2 16-3 1-1 3 2 5-5 4-8 11-5 6-8 7-14 15-5 4-6 2-3 3-7 2v-2l-3 1-2-4v-4h-2l-6-9-8-14-6-10-4-8-1-5-11-10-8-4-6-5-3-6 3-5 4-5 2-5 4-7 5-5 10-13 8-7 4-5 4-3h2v-2l3-3 3-7 11-10 7-8z" fill="#452823"/>
<path transform="translate(697,127)" d="m0 0h16l14 2 15 2 6 3 57 57 2 6h-2l-1 5-4 6h-2v2h-2l-2 4-5 7h-2v2l-5 5-3 1-2 4-8 7-5 5-11 9h-3v2l-5 2h-7l-10-8h-5l-74-74-8-7-1-5 7-7 8-7 15-12 14-8z" fill="#2C2722"/>
<path transform="translate(874,790)" d="m0 0 4 2 6 5v2h2l9 11 5 5h3l1-2 3 1-3 4 1 4 7 8 16 14v2l4 2 9 10 8 7 38 38-2 1-5-5-7-5v-2l-3-1-2-3-6 1-14 7-8 5-13 13-7 8-8 12-7 10-2 6 1 6 3 4-1 4-23-23-7-8-37-37-7-5h-3l-7-8-12-12 4-10 12-14 8-6h2l2-4 6-7 8-7 7-10 2-4 4-3 2-4 4-2 3-8z" fill="#A9944D"/>
<path transform="translate(719,343)" d="m0 0 2 1-9 9-9 11h-2v2l-5 4-4 5h-2l-2 5-3 3-3 5-7 6-5 7h-2l-3 10 2 5 8 8 5 7 14 10 7 3 11 1h11l4 4-1 4 1 3h2l-1 4-9 10-11 10-7 8-15 14-9 11-13 12-9 11-10 8-8 6-5-2-5-5-8-7-12-20-7-16-2-7v-26l2-12 3-9 6-8 9-10 5-4 7-8 12-12 5-3 4-1 12-12 5-3 20-20v3l-11 11-4 5h-2l-1 3-5 4-1 2h-2l-1 3h-2l-1 3-8 7-2 5 8-7h2l1-3 8-7 29-29 8-7z" fill="#223232"/>
<path transform="translate(255,400)" d="m0 0 6 1 9 7v2l5 2 7 4 16 9 11 4 7 3 8 6 5 6 7 3 2 4-3 8-8 11-3 5-13 13-6 9-12 13-30 30-4 5-6 4-5-1-9-12-3-3v-2h-2l-5-9-4-6-7-20-3-12v-39l4-16 2-6 5-3 2-4 5-5 5-6 13-4z" fill="#452823"/>
<path transform="translate(308,337)" d="m0 0 11 2 9 7 15 11 7 4 25 14 11 3 6 1 2 2 14 2 1 2-7 11-2 6-15 15-7 8-12 11-58 58v-3l9-10 8-8 4-7 6-8 2-8-2-3-7-3-6-7-9-6-10-3-16-8-9-6-8-4v-2l-4-2-7-5-8 1-10 3h-3l-2 4-6 7h-2l-2 5-4 2 1-5 13-15 9-8 7-8 48-48 2 1z" fill="#6A302B"/>
<path transform="translate(1375,588)" d="m0 0 1 3-3 5h-2v2l-4 3h-2l-2 4-8 8h-2l-2 4-8 10-3 4h-2l-2 4-2 6-4 6-3 3-1 4 3 5 8 6 6 3 12 11 1 6 9 16 8 14 5 7v2h2l3 7 3 1 8-2 1-3 4-1-4 6-10 11-11 9-9 10-7 7-8 7-7 8h-3l-4 4h-2l-1 3-8 5-4-1-2-12-5-5-3-7-5-11-2-9-8-10-5-5-4-5-11-9-4-5-2-5-1-10 4-7 10-11-5 4-3 3-2-1 14-14 8-7 12-13 12-11 11-12 8-7 29-29 7-8z" fill="#6A302B"/>
<path transform="translate(1341,321)" d="m0 0 7 6 36 36 8 7 5 6 8 7 5 6-12-1v6l-3-1v9l-5 6-11 4-7 5h-2l-2 4-4 5h-2v2l-3 1-1 2-12 5-15 3-13 8v3l-3 1-12-11-44-44h3l6 3v-4l11-2 1-4 12-5 11-9 8-6 1-2h2l1-3 10-8 6-4 3-3 4-3 4 1 1-2 1-1v-7l1-3-3-3-2-6z" fill="#2888A5"/>
<path transform="translate(468,790)" d="m0 0h9l10 1 17 17 1 2 5 2 35 35-3 1-8-8-6-2-20 11-11 7-12 12-14 20h-2l-2 4-10 9-1 2h-2v7l8 12-1 2-2-2h-3l-11-12-36-36-7-8-17-17 1-2 27 27-4-5-3-5-4-5 2-6 10-12 8-12 12-13 7-8 9-7 14-10z" fill="#2E575F"/>
<path transform="translate(328,645)" d="m0 0 13 1 17 17 4 2 46 46-1 2-9-9-10-1-13-3-2 1-2 3-1 4-3 4 2 1-9 9-3-1-2 4-6 8h-2l-1 3-7 3-9 10-10 5-7 2h-8l-6-2-7-2-7-6-5-5-5-3-16-16-2-5-2-4 7-3 4-1 7-8 8-8 2-4h2l1-4 7-1 2-5 11-17 7-8h2l-1-4 5-4h9z" fill="#2888A5"/>
<path transform="translate(1200,179)" d="m0 0 7 6 46 46 2 14-1 8-3 6-8 12-9 10-6 5-6 7-11 9-13 10-10 5h-2v2l-4-1 1 5-7-6-42-42-2-4-4-5 10 1 9-5 5-4 7-8 14-12 8-6 10-9 9-16 4-6 1-3v-10l-2-2v-3h-2z" fill="#2E575E"/>
<path transform="translate(1024,554)" d="m0 0 4 2 16 15 2 6 3 1 3 7 4 7 5 10 2 7v29l-1 14-3 5-4 7-11 12-3 3-12 2-5 2-6-1-6-7-6-9-11-14-7-9v-2l-4-2-9-4h-9l-10 9-14 14-5 6-8 7-10 10h-5l-1 3-8 7-8 8-2-1 14-15 8-8 6-5 21-21 7-8 27-27 1-2-6 3-8 7-2-1 9-9 2-4 4-4h2l2-4 2-3 2-6 5-5 5-4 7-8 18-18z" fill="#111211"/>
<path transform="translate(266,573)" d="m0 0 6 2 87 87-1 2-17-17h-7l-5-1-2 1h-8l-3 3h-2l1 4-5 4-7 10-10 16-7 1-1 4h-2l-2 5-13 13-2 3-10 3 4 8-4-1-10-10-7-8-13-12-18-18-3-6-2-5h2v-3l7-1 3 1 2-4 9-3 6-4 3-5 6-2 1-3 7-3 3-6 7-12 3-2 1-7 4-5 2-1-2-5-1-3h3v-3l1-5-3-9z" fill="#1F95BB"/>
<path transform="translate(966,634)" d="m0 0h9l9 4 5 5 8 10 10 13 7 10 4 5 6 1 9-3h7l-6 7-8 8-5 6-8 7-9 8-5 2-5 3-8 5h-2v2l-8 7-8 8-6 8-13 10-9 6v-4h-3l2-11v-12l-2-7-2-12-2-5-4-4-1-5-5-2-1-3-5-3-16 1-7 8-9 9h-2v2l-8 6-3-1 2-4 9-10 8-8 8-5 12-12 5-4 4-1 15-15 5-4 7-8 16-16z" fill="#294239"/>
<path transform="translate(1400,387)" d="m0 0 11 2 9 10 8 7 16 17 31 31 8 7 3 3-1 2-8-7-6-3-3-6-2-1-6 2-6-3-6-7v5l-8-2-1 6-5 1-10 1-12 6h-2v2l-8 7-4 4-2 5-9 6-14 4-1 7 6 11 8 8 6 8 12 15 3 10-1 2-5-5-3-5-14-15-7-8-13-13-7-8-8-7-7-8-26-26 1-3v-3l6-3 8-5 18-4 6-3h3l1-3h3v-2h2l2-4 4-5 13-8 8-3 3-4 1-9 2-1 1-4z" fill="#1F95BB"/>
<path transform="translate(758,820)" d="m0 0 5 3 7 6 9 11 14 14 8 7 28 28-1 3-9 7-7 8-12 12-7 8-20 20-7 1v2l-9 3h-8l-1-1v-10l2-9v-9l-5-10-5-6v-10l-10-7-7-8-2-3-1-9 5-10 6-10 4-9 11-10 8-7z" fill="#3B8969"/>
<path transform="translate(422,745)" d="m0 0 6 1 9 2 9 3 6 4 8 8 8 7 40 40-3 1-9-10-9-9-10-1h-9l-5 2-13 9-9 7-14 15-9 12-7 10-6 7-2 6 6 7 3 5 3 4-4-2-26-26-3-5-4-4v-3l-4-2-6-7-6-5-3-4-1-11 4-7 3-1 1-3 8-7 13-12 9-11 7-9 5-4 14-6z" fill="#306778"/>
<path transform="translate(964,887)" d="m0 0 5 1 1 3 4 1 1 3 6 4 4 4 5 3 21 21 8 7 2 3-1 6-6 7-11 9-12 9-12 7-14 3-21 1-16-2-6-1-6-2-9-9-2-6-3-7 1-5 4-7 8-12 6-8 14-15 7-7 6-3z" fill="#2C2722"/>
<path transform="translate(885,176)" d="m0 0h6l4 4 5 7 5 10v2l4 2 2 2h6l-2 2 4 3 13 1 3 2 8-1 5-2h7l6-1 2 1v6l-8 11-4 10-2 3h-2l-1 5-24 24-11 9-3 6h-4l-1 3-4-2-16-17-13-12-35-35v-2h-2l2-4 7-7 6-7 6-4 9-5 3-1v-2l4-4h2v-2l10-4z" fill="#3B8969"/>
<path transform="translate(728,325)" d="m0 0v3l1 3 7-4 1 2-2 5-11 12-20 20-1 5 2 10 5 3 9 2 3 3h10l9 4 19-1 20-6 3 3v4l5-1 1 2h3l-1 4-13 12-9 11-16 15-8 9-11 9-5 4v-2h-2v-2l-2-1 1-4-3-3h-14l-11-2-14-9-7-6-6-8-7-8 2-9 2-3h2l2-4 5-6 6-5 3-5 4-6h2l1-3h2l2-4 4-2v-2l5-5 14-15-7 6-15 15-8 7-29 29-8 7-3 3h-2l2-6 8-7 4-5h2l2-4 5-5h2l1-3h2l2-4 10-10 1-4 23-23 8-7zm-45 38 4 1v3l-21 21-5 3-6 7-6 4h-2l-4 2 6-7 11-10 7-8 12-11z" fill="#2A443A"/>
<path transform="translate(859,246)" d="m0 0 5 1 14 14 8 7 7 7 7 8 3 1 1-2h3l-2 5-2 3 7 9-1 3-8-1-10-1-4 1-1 2-5 3-11 7-4 5h-2l-2 4-3 1-1 3h-2v2l-5 5-7 10-1 4h-2l1 4-3 9-11-1-9-8-7-8-8-7-6-6-4-7-3-6-1-5v-7l4-2-1-3 10-6 7-9 5-6 8-7 10-8 10-4 5-6h2l1-3z" fill="#C3AD4C"/>
<path transform="translate(824,746)" d="m0 0 5 1 6 2 9 10 8 7 13 11v3h2l5 6 2 1 1 6-4 8-4 2-3 5-3 1-2 6-9 11-10 9-4 6-11 8-11 13-3 8-4-2-12-12-8-7-12-12-9-11-8-6v-9l16-3 11-6 10-8 6-4 9-10 4-5 6-14 2-12z" fill="#CEB848"/>
<path transform="translate(1292,272)" d="m0 0 4 2 44 44 1 7 3 7 2 3-2 9h2l-1 2-7 1-4 3h-2l-1 3-11 8-5 4-1 2h-2l-1 3-13 10-8 6-10 4-1 3-4 2h-7v4l-6-2-7-3-5-5-3-5-5-5v-2l-4-2-7-8-4-4 2-4 17-9 15-9 5-4 8-6 9-8 9-7 7-9 2-5v-6l-3-8-3-6-2-7z" fill="#30778E"/>
<path transform="translate(1283,682)" d="m0 0v3l-10 11-3 7 2 12 4 6 13 11 5 5 8 10 4 7 2 9 4 8 3 7 5 5 2 12 5-1 6-4 5-5 4-3-1 4-9 9-7 6-8 10-10 8-5 3-7 8-11 9-5 5h-2v2l-4 2-1 2-2-1 1-5 1-2h2l1-6 4-5-1-8-3-4-5-15-3-5-4-11-2-6-3-4-4-8-5-7-4-1-5-6-1-4-2-6-2-2v-10l6-8 14-14 7-8 9-9 2-4 8-7z" fill="#953431"/>
<path transform="translate(346,302)" d="m0 0 7 5v2l6 1 12 6 16 9 1 3 9 5 5 2 13 3 17 1 5 1 3 1 8-3 7-3h5l-1 5-21 21-6 9-30 30-1-4 7-11v-1l-14-2-5-3-8-1-9-4-17-9-9-5-17-12-8-7-5-2-8-1-7 3 1-4 28-28 7-6 2 1z" fill="#953431"/>
<path transform="translate(1105,129)" d="m0 0 17 1 7 3 15 10 3 4v5l-9 8-6 8-11 6-13 9-5 5-10 7-6 7h-2l-2 6-4 3-4-1-1 3-4-1-44-44 1-5 11-9 12-9 7-4h2v-2l5-1v-2l12-5z" fill="#0F1517"/>
<path transform="translate(761,148)" d="m0 0 7 6 37 37 2 6h-2l-1 5-4 6h-2v2h-2l-2 4-5 7h-2v2l-5 5-3 1-2 4-8 7-5 5-11 9h-3v2l-5 2h-7l-10-8h-5l-33-33-1-5 5 2 4 3 5-1 5-3 11-9 9-8 16-11 4-5h2l2-4 12-18v-4-2h-2z" fill="#6F6741"/>
<path transform="translate(925,846)" d="m0 0 4 2 8 8 7 4 43 43-2 1-5-5-7-5v-2l-3-1-2-3-6 1-14 7-8 5-13 13-7 8-8 12-7 10-2 6 1 6 3 4-1 4-23-23-7-8-19-19h3l10 10-6-7-3-3-1-5 5-10 12-14 9-9 8-10 8-7 10-7 11-3v-2z" fill="#706741"/>
<path transform="translate(641,938)" d="m0 0 4 1 2 3 8 1 6 5 2 4 2-1 3 2 3 7h4l4 1 1 5 5 5 1 3 4 2 1 4-2 5 1 3h5l1 1v6l-2 1-1 3h3l1 3v3 2l3-1 4 2 5-1-2 4-8 8-5 2-2 4-10 8h-2l-2 4-6 7-5 3-6 1-2-2 1-5h-1l-2-7 2-3-4-1v-2h-8l-2-9-3-4 1-9-6-8-10-8-11-5-4-1v-6l-9-3-3-3v-2l-2-1 15-9 4-4 15-10 4-6 3 1z" fill="#359F73"/>
<path transform="translate(528,837)" d="m0 0 6 2 8 8 5 2 15 14 44 44-3 2-17-17-5-4-7-8-18-18-3 1-2 4-8 7-16 10-8 6-8 11-8 9-8 13-6 7h-2v2h-2l1 7 7 12 7 7 2 5 12 4 2 2v3l18 2 49 1v-2h5l-4 3-15 2h-35l-13-1-3-1v-2l-5-1-10-5-45-45 1-2 2 1-8-12 1-7h2l2-4 10-9 1-2h2l2-5 8-10 6-9 8-7 5-4 15-9z" fill="#1E2A2C"/>
<path transform="translate(902,287)" d="m0 0 1 2h2l6 8 8 7 21 21 7 8 62 62 8 7 10 10 7 8 71 71 8 7 11 13 10 18 3 12v25l-3 10-8 15-10 13-46 46-10 7-2-1 3-4 1-14v-29l-1-5 11 4 4 8v11l-2 6 3-3h2l2-4 4-3h2l1-3 8-6 7-7h2l2-4 10-13 8-16 3-10-1-15-4-13-7-10-10-12-8-11-9-9-7-9-7-7-5-6-5-4-9-11-11-10-14-11-10-13-3-2v-2l-4-2v-2l-4-2-12-14-8-8v-2l-4-2-5-5-11-10v-2h-2l-14-14v-2l-4-2-12-14-5-5-9-11v-2l-4-2-6-5-6-9 1-5-7-9z" fill="#FBE03A"/>
<path transform="translate(980,86)" d="m0 0h13v3l5 2 4 10v3l5 1 11 1 9-1 12 2 3 1h7l5 2 4 4-2 1-1 3 7 1-2 3 4 1v2l4 2v2l-15 7-4 1v2l-11 5-16 8-7 4-9-1-13-1-9-7-9-6 2-4-7 2-2-1v-2l-4-2-5-5-3-2v-2l-9-3-6-1-1-7 1-5-27 27-2-1 44-44h2l1 4h5l4-3 6-2z" fill="#34A074"/>
<path transform="translate(554,861)" d="m0 0 4 2 23 23-2 1 1 3-1 4-6 5-6 7h-2v2l-6 5h-2v2l-9 6-2 5-4 5-6 8-5 12-5 8v6l2 2 13 3 23 2h10l15-2 12-5 3-3 13-8 3 1-5 3-5 5-14 8-5 2h-8v2h-49l-16-2-2-1-2-4-12-4-5-8-6-7-6-10-1-4 1-3h2v-2l5-5 4-5 7-11 9-10 8-11 27-18 2-3h2l2-5z" fill="#161F21"/>
<path transform="translate(236,441)" d="m0 0 3 3 3 1 2 3 5 3 6 4v2l4-1 16 10 4 5 12 7 6 3 4 1 1 4-2 6-8 11-4 5-5 8-5 5-3 7-13 13-6 1-7-1-8-7-9-14-4-7-4-13-5-14-2-11 2-14 4-6 4-3 6 3-1-2 3-9z" fill="#2F1F1C"/>
<path transform="translate(609,447)" d="m0 0h5l5 6v2l4 2 2 6 4 1 4 2 8 8 4 2 1 2 6 3 8 7 15 6 1 3 5 2 6-1-1 4-9 11-13 12-9 11-10 8-8 6-5-2-5-5-8-7-12-20-7-16-2-7v-26l3-11 3-1 1-4z" fill="#121211"/>
<path transform="translate(601,448)" d="m0 0 1 4-2 6-1 9v26l4 12-1 3-3-3-8-16-1-4-2-1-7 1-8 7-9 10-6 7-3 3-8 11-10 15-4 13 1 10 4 11 12 24 6 10 9 9 8 7 31 31 5 4v2l4 2 11 10 7 8 12 13 9 9 11 9 9 8 17 17 7 8 5 5 11 12 8 7 9 9v2h2l5 5 2 4 4 2 7 8 5 5 2 1 2 6 1 9h-2l-6-9-207-207-10-13-8-15-2-6-1-7v-17l3-12 10-19 8-10 10-11 8-7 7-7 7-8 12-11 9-8z" fill="#FCE13A"/>
<path transform="translate(1408,558)" d="m0 0 5 1 9 9 5 7 3 8 5 8 6 17 2 6 2 19v16l-1 14-7 15h-1v-7l-3 1v2l-3 1-4-2-5-12-2-5-7-15-6-17-9-11-5-4-10-4h-2l-8 7-4 1 1-4 11-13 3-8 4-2 1-5 6-8 5-5 7-6z" fill="#1A1919"/>
<path transform="translate(1170,149)" d="m0 0 7 6 23 23 1 5h2l3 5v10l-4 8-6 10-6 9-12 11-8 6-13 11-5 6-11 8-8 1h-3l5 6-4-2-13-12-20-20 1-3 5 2 3 3 5 3h7l9-5 12-10h2v-2l4-3h2v-2l8-7 10-9 5-5 8-14 4-6v-9l-3-8-1-4h-3l-5-7z" fill="#233"/>
<path transform="translate(499,820)" d="m0 0h14l6 4 6 3 20 20-3 1-8-8-6-2-20 11-11 7-12 12-14 20h-2l-2 4-10 9-1 2h-2v7l8 12-1 2-2-2h-3l-11-12-2-5-2-4-9-12 1-4 10-13 8-11 7-9 12-14 5-5 5-3 16-8z" fill="#2E4446"/>
<path transform="translate(308,337)" d="m0 0 11 2 9 7 15 11 7 4 25 14 11 3 6 1 2 2 14 2 1 2-7 11-2 6-7 2-10 3-4 1-10-2-17-9-8-5-16-8-9-6-9-9-10-7-3-4 1-2-4-1-7 1-8 7-2-1 23-23 2 1z" fill="#79322D"/>
<path transform="translate(1282,685)" d="m0 0 2 2 1 2 6 1 4 2 7 10 12 9 9 11 3 7 1 7 5 5 4 10 3 3 3 11v11l-1 7-5 5h-2l-1 3-8 5-4-1-2-12-5-5-3-7-5-11-2-9-8-10-5-5-4-5-11-9-4-5-2-5-1-10 4-7z" fill="#79322D"/>
<path transform="translate(1200,179)" d="m0 0 7 6 13 13 4 8 1 10-2 9-4 7-2 4-7 9-9 10-8 5-9 10-14 12-10 8-3 1-5-3 1 2-1 3-18-18-2-4-4-5 10 1 9-5 5-4 7-8 14-12 8-6 10-9 9-16 4-6 1-3v-10l-2-2v-3h-2z" fill="#2E4446"/>
<path transform="translate(881,269)" d="m0 0 4 1 11 9 5 5h2l1-2h3l-2 5-2 3 7 9-1 3-8-1-10-1-4 1-1 2-5 3-11 7-4 5h-2l-2 4-3 1-1 3h-2v2l-5 5-7 10-1 4h-2l1 4-3 9-11-1-9-8-6-7 2-15 6-7 5-5 3-4h2l1-6 7-6 2-3h2l2-4 9-7 6-4 6-3 4-1 1-4 4-2v-2z" fill="#CEB848"/>
<path transform="translate(643,408)" d="m0 0h2l-1 4-7 7-2 5 8-6 5-4 1 4-7 11 1 8 5 5 11 8 11 7 9 6 13 4 7 5 1 6-2 13-10 9-1-2-7 2-5-5-17-7-7-7-6-3-1-2-5-3-6-5v-2l-5-2-3-1-4-7-5-5-2-3-5-1-2 4-2 1-1 3-2 1-2 9h-1v-7l3-11 7-9 9-10 9-7h3l2-5 7-7h3z" fill="#172021"/>
<path transform="translate(990,612)" d="m0 0 9 1 5 3 6 7v2l4 2 10 7 9 7 6 8 5 6h7l8-8 2-7h1v12l-3 5-4 7-11 12-3 3-12 2-5 2-6-1-6-7-6-9-11-14-7-9v-2l-4-2-9-4h-9l-10 9-14 14-5 6-8 7-10 10h-5l-1 3-8 7-8 8-2-1 14-15 8-8 6-5 21-21 4-5 5-3 8-7 4-1 1-2 8-6 8-8z" fill="#161F21"/>
<path transform="translate(274,379)" d="m0 0 9 2 13 8-3 2 9 7 2 2 3 4 5 4 1 3 6 2 12 7 6 1 5 4v2l10 2h6l2-2 1 1v6l-2 3h-2l-1 4-5 4 1 1 20-20 8-7 15-16 4-1-6 7-8 8-7 8-12 11-58 58v-3l9-10 8-8 4-7 6-8 2-8-2-3-7-3-6-7-9-6-10-3-16-8-9-6-8-4v-2l-4-2-7-5-8 1-10 3h-3l-2 4-6 7h-2l-2 5-4 2 1-5 13-15 9-8 1-2 7-3 8-7z" fill="#5C2F2A"/>
<path transform="translate(1408,555)" d="m0 0 5 1 8 7 11 14 9 17 7 18 2 11v31l-2 16-3 1-1 3 2 5-5 4-8 11-5 6-8 7-6 7-1-3 2-5h2v-3l4-4 2-5-3-1-2-5-7-9-4-4-9-17-8-16-3-5v-2l-4-2-8-5-13-2-8 4-4-1 3-5 12-13 7-8 8-10 1 3-9 10-3 4v2l5-3 7-6 14 7 10 11 4 8 6 17 7 13 1 5 4 9 6 1v-2l4-3v7l6-13 1-22v-9l-2-18-3-8-5-15-7-12-3-7-11-12-2-3-4-1z" fill="#2E1F1C"/>
<path transform="translate(624,542)" d="m0 0 5 1 4 5 3 3 3 5 12 12 5 4 7 8 16 15 12 13 44 44 8 7 11 12 69 69 10 7-1 2-5-2h-3l-3 3-6-2-10-8-8-7-7-10-5-5-13-10-5-5-9-10-13-13-6-8-15-16-13-13-8-7-10-9-3-3v-2l-4-2-8-7-6-8-4-3v-2h-2l-9-12-8-8-8-7-15-15-2-9-1-6z" fill="#FADF3B"/>
<path transform="translate(372,699)" d="m0 0 9 1 11 3h6l9 9 4 2 10 10h-3l-8 1-5-2h-10l-8 6-11 9-6 8h-2l-2 4-7 8-9 9-4 5-4 3-5 2-1 2-5 1-8-3-12-6-12-12-5-2-16-16h3l10 10 6 1 5 2 3 1h8l7-2 11-6 9-10 6-2 9-11 2-3 4-1 5-6 2-1v-4l2-2 1-5z" fill="#2F7D95"/>
<path transform="translate(227,418)" d="m0 0 2 1v2h2v2l8-1 5 1 9 7 7 7 10 4 19 11 7 6 8 6 6 4 4 1 1 7-4 8 3-3 3 1-9 10-3 5-12 13-16 16-1-4 5-6 3-2 5-9 5-6 6-8 1-9-7-1-13-8-5-5-12-8-5-3h-4l-2-3-5-3-6-4v-2l-4-1-2-2-1 7-2 5 1 2-5-2-3-1-6 9-2 14 3 13 7 20 3 8 9 14 5 5 1 3 12 2 4 1-9 7-5-1-9-12-3-3v-2h-2l-5-9-4-6-7-20-3-12v-39l4-16 2-6 5-3z" fill="#372520"/>
<path transform="translate(1375,588)" d="m0 0 1 3-3 5h-2v2l-4 3h-2l-2 4-8 8h-2l-2 4-8 10-3 4h-2l-2 4-2 6-4 6-3 3-1 4 3 5 8 6 6 3 12 11 1 6 9 16 8 14 5 7v2h2l3 7 3 1 8-2 1-3 4-1-4 6-10 11-11 9-9 10-7 7-8 7-7 8-1-3 26-26-5 1v2h-4l-1-4 1-8h2l-2-9-5-10-1-6-5-10 1-2-2-5-2 3-6-10-7-4-5-6-2-2-4-6-6-8-3-2h-3l-1-3 5-12 8-8 3-5 6-8 8-7 29-29 7-8z" fill="#5C2F2A"/>
<path transform="translate(860,774)" d="m0 0 5 3v3h2l5 6 2 1 1 6-4 8-4 2-3 5-3 1-2 6-9 11-10 9-4 6-11 8-11 13-3 8-4-2-12-12-8-7-2-3h4l3-6 14-14 5-3 6-5 11-9 7-9 4-4 6-9 9-8h2v-2h4z" fill="#C3AD4B"/>
<path transform="translate(966,634)" d="m0 0h9l9 4 5 5 8 10 10 13 7 10 4 5 6 1 9-3h7l-6 7-8 8-5 6-16 14h-6v-2l-4 2-4-1-1-17-6-12-10-10-16-14-15-1-2-1 22-22z" fill="#223332"/>
<path transform="translate(890,299)" d="m0 0h7l11 3 3 5v20l-2 5-3-1-2 4-5 3-3 1-1 3-4 4-1 3-7 5h-2l-2 4-18 9-8 1-9-3-7-4 4-10v-4h2l1-6 9-12 3-1v-2l7-6 7-8 11-7 3-1 3-3z" fill="#F0D02F"/>
<path transform="translate(1330,310)" d="m0 0 4 2 7 8v6l3 6 2 3-2 9h2l-1 2-7 1-4 3h-2l-1 3-11 8-5 4-1 2h-2l-1 3-13 10-8 6-10 4-1 3-4 2h-7v4l-6-2-7-3-5-5-3-5-2-3 5 1 5-4 9-3 11-8 9-7 7-7 5-4 8-8h2l1-3 6-3 7-8 3-9h2l1-4z" fill="#2F7D95"/>
<path transform="translate(759,821)" d="m0 0 4 2 7 6 9 11 14 14 8 7 28 28-1 3-9 7-7 8-6 6-15-1-3-5v-10l-3-9-8-11-5-8-1 4-16-20-1-2v-9l2 1 3-9-1-2 1-4-2-4z" fill="#3B7F6B"/>
<path transform="translate(1414,552)" d="m0 0h7l7 3 10 12 6 9 5 6 9 12 4 11-1 3 1 3h5l5-1 3 1h9l6-1v2l6-4h3l-4 6-1 6-9 14-6 10-6 8-6 7h-2l-2 4-13 13-3 1-2-7h3l1-16v-31l-2-11-9-22-9-16-11-13-8-6 1-2z" fill="#1F95BB"/>
<path transform="translate(749,136)" d="m0 0 7 6 5 5 1 5h2l2 5-6 8-6 10-4 5-5 5-11 8-12 9-10 9-6 5-5 2-4-1-7-4v3l-7-6-14-14v-1h5l2 4 8-1 12-11 10-8 11-7 9-7 5-6 6-8 5-6 2-4 6-1z" fill="#35342B"/>
<path transform="translate(1280,260)" d="m0 0 4 2 9 9 1 4 4 11 2 3 2 7v6l-4 8-9 10-13 10-8 7-6 4-11 7-23 13 2 4 8 8 7 8 5 5 3 5 3 3 5 3 50 50 8 7 30 30v2l4 2 11 11 7 8 13 13 7 8 10 11-1 2-217-217-2-4 1-3 2 4 4 2 10 11 8 7 2 4 4 2 5 5h4l2-4 8-6 11-4 8-5 8-8 11-8 6-7 9-7 3-5 1-9-3-11-5-12z" fill="#32747D"/>
<path transform="translate(904,813)" d="m0 0 3 1-3 4 1 4 7 8 16 14v2l4 2 7 8h-3l-3-3v-2l-8-4h-2v2l-13 5-10 8-6 5-9 11-11 11-10 13-3 9 3 5 7 7-1 2-11-11-5-3-3-4v-2l-9-11 1-7 3-6 5-2 2-5 8-9 18-18 4-5h2l2-4 10-5 7-2 1-2h2l-3-5-3-4v-4z" fill="#90884C"/>
<path transform="translate(964,887)" d="m0 0 5 1 1 3 4 1 1 3 6 4 4 4 5 3 3 4h-4l-5-5-6 1-5 2-1 3-5 2-8 7-5 5-5 6-7 6-8 11-3 1v2h-2l-1 3h-2l-2 4-8 7 6 7 4 3-6 1-5-3-8-8-2-6-3-7 1-5 4-7 8-12 6-8 14-15 7-7 6-3z" fill="#34332B"/>
<path transform="translate(805,192)" d="m0 0 7 6 14 14-7 13-10 10-8 7-9 8h-2v2h-2v2l-8 7-11 12-6 4-4-1-6-2-8-5-5-2-16-16 4-2 10 8h7l5-1v-2l5-3 11-9h2l2-4 8-7 7-8h2v-2l3-3 6-8h2v-2h2l6-12z" fill="#91884C"/>
<path transform="translate(856,194)" d="m0 0 2 1 3 1-2 4h-2l1 2 4 1-2 6-3 4 1 3 5 3-3 2 9 5 13 9 9 5-3 1h-2l16 8 14 3 1 2 2-4 2 6-1 8h-2l-2 5-4 4-4 9h-4l-1 3-4-2-16-17-13-12-35-35v-2h-2l2-4 7-7 6-7 6-4z" fill="#3B806C"/>
<path transform="translate(1024,554)" d="m0 0 4 2 16 15 2 6 3 1 3 7 4 7 5 10 1 9v21l-2 1-8-3-4-5-6-14-4-7-9-10-3-2h-10l-11 4-12 7-2 3-5 2 2-4 9-10 2-4-4 1-8 8h-2l-1-4 2-4 5-5 5-4 7-8 18-18z" fill="#070909"/>
<path transform="translate(761,148)" d="m0 0 7 6 31 31h-3l-10-10-6 4h-2l-2 4-11 12-4 5-17 13-11 9-12 10-7 1-11-8 1 3h-3l-11-11-1-5 5 2 4 3 5-1 5-3 11-9 9-8 16-11 4-5h2l2-4 12-18v-4-2h-2z" fill="#4B4F3E"/>
<path transform="translate(946,864)" d="m0 0 4 2 37 37-2 1-5-5-7-5v-2l-3-1-2-3-6 1-14 7-8 5-13 13-7 8-8 12-7 10-2 6 1 6 3 4-1 4-15-15-2-5-2-4-1-5 6-11 10-13 4-5h2l3-6h2l2-4 9-10 18-13h2l2-5v-3z" fill="#4C4D3D"/>
<path transform="translate(528,837)" d="m0 0 6 2 8 8 5 2 15 14 44 44-3 2-17-17-5-4-7-8-26-26v-2l-8-2-14 8-19 13h-2v2l-8 7-10 16-16 16-3 4v9l6 9-1 3-7-6-8-8 1-2 2 1-8-12 1-7h2l2-4 10-9 1-2h2l2-5 8-10 6-9 8-7 5-4 15-9z" fill="#223232"/>
<path transform="translate(492,806)" d="m0 0h6l7 4 5 2 13 13-3 1-5-4-2-1h-14l-16 9-7 3-5 5-10 11-10 13-13 18-5 6 1 5 10 12v5l-7-6-28-28-7-8-17-17 1-2 32 32v2l3 1v2h2l7 8 2 1-8-11-4-5 2-5 11-15 2-5 11-12 1-2 3-1 10-13 7-6 10-6 4-3z" fill="#314F53"/>
<path transform="translate(1362,625)" d="m0 0 13 2 12 8 6 11 12 23 4 8 5 5 1 3 3 1 3 5v2l2 1-1 5-3 4h-2v3l-6 2h-7l-4-11-6-7-8-16-10-18-15-10-11-6-9-1 1-4 7-8 2-1v3l5-1z" fill="#382520"/>
<path transform="translate(601,466)" d="m0 0 5 1 4 7 4 14 6 9 7 11 4 4 20 4 5 3 7-1 4-3h3l-1 5-7 7-7 9-10 8-8 6-5-2-5-5-8-7-12-20-7-16-1-4v-19l1-9z" fill="#0B0D0D"/>
<path transform="translate(1220,199)" d="m0 0 7 6 9 9 3 8 1 11-2 4-11 13-4 6-12 12-7 8-9 8-8 6-9 6-7 5-1 2-4-1-8-8-1 2h2v2l3 1 5 5v3l-7-6-7-7-2-5v-3l3 3 4 1 6-4 10-9 10-8 11-12 8-5 9-10 6-8 1-4 4-7 1-11-2-8z" fill="#314F53"/>
<path transform="translate(677,391)" d="m0 0v3l-1 3v7l13 13v2h6l7 4 9 2 4-1 7 1 7-3 16-2h6l4 3-2 5-4 5-1 5-4 2 1 5-11 9-5 4v-2h-2v-2l-2-1 1-4-3-3h-14l-11-2-14-9-7-6-6-8-7-8 2-9 2-3h2l2-4z" fill="#243C36"/>
<path transform="translate(223,474)" d="m0 0 7 1 2 4 4 1 5 4 2 3 3 1 3 4 3 1 4 6 3 5 9 5 4 2v2h2l-1 7-2 5-1 8-8 8-6 1-7-1-8-7-9-14-4-7-4-13-5-14v-8l3-1z" fill="#1B1A1A"/>
<path transform="translate(997,919)" d="m0 0 7 1 7 7 8 7 2 3-1 6-6 7-11 9-12 9-12 7-7 2h-18l-5-5 2-6 7-6 10-8 7-6 8-10 8-7 3-5h2z" fill="#1B1B1B"/>
<path transform="translate(814,749)" d="m0 0h7l1 1-1 11-4 9-3 6-12 14-5 4-12 9-11 6-16 2-3-8 1-10 5-4 9-11 9-6 9-5h2l2-4 10-8z" fill="#F0D030"/>
<path transform="translate(943,658)" d="m0 0 15 1 10 9 4 3v2l4 2 9 9 6 12 1 17 7-1v2h5l-4 2-3 3-8 4-5 2v2l-13 8-6 3 3-19v-5l2-3-1-6-5-11-6-12-10-9-3-1-16-1 6-7z" fill="#243B36"/>
<path transform="translate(221,421)" d="m0 0 1 2-6 22v39l4 14 4 13 4 8 6 10v2h2l1 4 3 1 8 10v2h2v2l-3 3-8-1-3-2v-2l-6-2-9-7-4-7v-2h-2l-3-7v-4h-2l-4-19v-30l1-16-3-3-6 2-6 4-6 3-8 8-3 1-2-2 9-10 14-13 8-7 9-8 3 1 1-4z" fill="#2999BB"/>
<path transform="translate(835,360)" d="m0 0 5 2 8 4 5 3v2l3 1v2h2l5 5 1 3h2l7 8 7 7 2 1v2l5 2 16 15 9 10 6 9 8 9 5 5 9 7 9 9 7 5v2l4 2 8 9v2h2l7 8 17 17 8 7 15 18 7 6v2l4 2 3 3 1 5h-3l-1 3-2-4-6-7-8-7-41-41v-2l-4-2-103-103-5-6-8-7-10-10z" fill="#FBE03B"/>
<path transform="translate(691,128)" d="m0 0h19l3 1 1 5-2 3h-2l-2 4-18 10-13 8-6 5-5 10-2 5-4 4-5-1-14-13-1-5 7-7 8-7 15-12 14-8z" fill="#1B1A1A"/>
<path transform="translate(521,831)" d="m0 0 9 1 15 15-3 1-8-8-6-2-20 11-11 7-12 12-14 20h-2l-2 4-10 9-1 2h-2v7l8 12-1 2-2-2h-3l-2-2-1-5-2-3v-3h-2l-6-9 2-7 7-8h2l2-4 10-13 14-16 6-5 10-7 16-7z" fill="#2C3C3D"/>
<path transform="translate(1200,179)" d="m0 0 7 6 7 14v9l-4 7-6 10-6 8-15 15-8 7-16 13-8 6-7 3-4-1 4 5 5 6 4 3-1 3-18-18-2-4-4-5 10 1 9-5 5-4 7-8 14-12 8-6 10-9 9-16 4-6 1-3v-10l-2-2v-3h-2z" fill="#2C3C3D"/>
<path transform="translate(977,626)" d="m0 0h11l6 3 7 8 6 9 9 10 5 5 3 4 3 7 3 1 11 1 3 2-3 3-12 2-5 2-6-1-6-7-6-9-11-14-7-9v-2l-4-2-9-4h-9l-10 9-14 14-5 6-8 7-10 10h-5l-1 3-8 7-8 8-2-1 14-15 8-8 6-5 21-21 4-5 5-3 8-7 4-1 1-2 5-4z" fill="#192626"/>
<path transform="translate(548,855)" d="m0 0 4 2 3 4-4 6-8 7-16 10-8 6-8 11-8 9-8 13-6 7h-2v2h-2l1 7 7 12 7 7 2 5 12 4 2 2v3l18 2 49 1v-2h5l-4 3-15 2h-35l-13-1-3-1v-2l-5-1-10-5-9-9-3-7-4-3-1-4-7-9-3-9 7-8 5-5 8-11 11-14 7-8 5-4 4-4 16-9 8-7z" fill="#192626"/>
<path transform="translate(1432,587)" d="m0 0 3 4 6 17 2 6 2 19v16l-1 14-7 15h-1v-7l-3 1v2l-3 1-4-2-5-12-2-5-7-15-6-17-9-11-5-4-10-4v-3l7-3 10 3 6 4 10 17 4 10v2l4 2 3 4 10 2 3-6v-22l-3-15-4-10z" fill="#23201E"/>
<path transform="translate(697,127)" d="m0 0h16l14 2 6 5 1 4-8 4-5 5-7 8-24 15-3 1v2h-2l-2 4h-2l-2 4-4 7-9 1h-4l-5-6h3l1-3 3-2 4-11 6-7 11-7 16-9 8-5 4-5v-5l-16-1z" fill="#23201E"/>
<path transform="translate(785,174)" d="m0 0 5 4-1 7-5 10-5 5h-2l-2 5-6 7-12 9-12 11-10 8-6 3-7-1-7-5v3l-4-2-8-8-1-6 7 4 5 4 7-1 13-11 11-9 13-10 5-4 7-8 8-10z" fill="#68533D"/>
<path transform="translate(1179,162)" d="m0 0 7 6 6 8 2 5v6l-8 14-10 13-8 8-11 9-3 3h-2v2h-2v2l-10 7-9 8-6 3-5-1-5-3v-2h-2v2l-4-1-11-11 1-3 5 2 3 3 5 3h7l9-5 12-10h2v-2l4-3h2v-2l8-7 10-9 5-5 8-14 4-6v-9l-3-8z" fill="#1E2A2C"/>
<path transform="translate(940,862)" d="m0 0 5 2 3 3-4 6-16 11-8 7-7 9h-2l-3 6h-2l-2 4-9 11-7 11-1 6 3 4 1 4 1 2-4-2-8-9 2-1-7-9 4-10 8-10 7-9 11-11 7-8 10-9 17-7z" fill="#68533D"/>
<path transform="translate(422,745)" d="m0 0 6 1 9 2 9 3 6 4 1 2-9 1-7-2h-11l-14 8-10 12-9 11-11 13-7 8-5 3h-2l-5 10-4-4-1-11 4-7 3-1 1-3 8-7 13-12 9-11 7-9 5-4 14-6z" fill="#32747D"/>
<path transform="translate(688,365)" d="m0 0v3l-11 11-4 5h-2l-1 3-5 4-1 2h-2l-1 3h-2l-1 3-8 7-2 5 10-8 1 3-7 13h-2l-1 7 3 7 20 16 14 8 13 3 8 3 3 8 2 2-1 4-12 13-1-3 1-13-4-4-5-3-11-3-11-7-9-6-14-10-3-4-1-8 7-11v-3l-11 9-3 1 1-4 7-8 3-5-5 3h-2l-6 7-2 4-4 1-2-1 18-18 5-3 4-1 12-12 5-3z" fill="#1E2B2D"/>
<path transform="translate(648,414)" d="m0 0 1 4-7 11 1 8 5 5 11 8 11 7 9 6 13 4 7 5 1 6-2 13-3 2-1-5-3-2v-3l-4-2-15-4-13-8-7-8-2-1v-2l-4-2-10-8-4-7 1-10-4-4 5-5 1 2 8-6z" fill="#192626"/>
<path transform="translate(609,447)" d="m0 0h5l5 6v2l4 2 2 6 4 1 4 2 8 8 4 2 1 2 6 3 8 7 15 6 1 3 5 2 6-1-1 4-9 11-6 5-1-3-3-1 4-4h2l-3-3-7-6-8-2-12-9-13-8-9-7-7-10-5-9-6 1-2 7h-1l1-8 3-1 1-4z" fill="#111819"/>
<path transform="translate(996,589)" d="m0 0 4 1-4 6-9 10h1l3 1-1 2 7-4h8l5 2 9 7 9 11 6 3 8 11 6 12 4 1 4-1-5 5h-7l-9-10-5-7-17-12-5-5-6-7-8-2-6 1-9 7-12 11-10 6-6 6-2-1 29-29 1-2-6 3-8 7-2-1 9-9 2-4 4-4h2l2-4 3-2 4-2z" fill="#0F1517"/>
<path transform="translate(1164,144)" d="m0 0 5 3 4 8 3 4v2h3l4 8 1 4v9l-8 13-6 10-15 13-5 5h-2v2l-4 3h-2v2l-8 6-9 7-6 3h-7l-9-5v-1l10-1 9-6 4-5 11-7 7-7 9-11 9-8 3-5 5-4 6-12-1-9-5-10-6-9z" fill="#192626"/>
<path transform="translate(1408,555)" d="m0 0 5 1 8 7 11 14 9 17 7 18 2 11v31l-2 16-3 1-1 3 2 5-5 4-8 11-5 6-8 7-6 7-1-3 2-5h2v-3l4-4 2-5-3-1-1-6 3-1 1-9h3l-1-3 2-1 6 1v-2l4-3v7l6-13 1-22v-9l-2-18-3-8-5-15-7-12-3-7-11-12-2-3-4-1z" fill="#2C2722"/>
<path transform="translate(988,912)" d="m0 0h6l5 5 4 2-4 1h-2l-1 4h-2l-2 5-7 7h-2l-2 4-9 10-11 9-8 6-3 5 2 4 2 3-4-1-7-4-3-3-2-4 1-4 15-14 6-8 5-4 7-8 10-9 3-3h3z" fill="#22201E"/>
<path transform="translate(227,418)" d="m0 0 2 1v2h2l-1 4-2 6 4 4 1 3 3 2-1 9-2 5 1 2-5-2-3-1-6 9-2 14 3 13 7 20 3 8 9 14 5 5 1 3 12 2 4 1-9 7-5-1-9-12-3-3v-2h-2l-5-9-4-6-7-20-3-12v-39l4-16 2-6 5-3z" fill="#2C2722"/>
<path transform="translate(966,634)" d="m0 0h9l9 4 5 5 8 10 10 13 7 10 4 5 6 1 9-3h7l-6 7-3 3-15 4-4-1-4-3-4-10-7-9-7-11-5-4-5-6-7-5-5-2h-8l-17 17-2-1 22-22z" fill="#1E2B2D"/>
<path transform="translate(226,452)" d="m0 0 6 3 7 13 11 13 2 4 8 10 8 8 12 3h3l2 2 1 3-3 5-5 5-3 7-5 4v-8l3-6 1-5h-2l-1-2-7-3-6-4-4-6-2-5-4-1-2-4-4-1-4-5-6-3-2-3-7-1-3 3-2 3-1-6 2-14 4-6z" fill="#23211E"/>
<path transform="translate(1067,141)" d="m0 0 15 1 1 4-12 9-10 7-6 5-5 7-6 4 1 6-4-1-14-14 1-4 5-2 13-12 17-9z" fill="#08090A"/>
<path transform="translate(221,421)" d="m0 0 1 2-6 22v39l4 14 4 13 4 8 6 10v2h2l1 4 3 1 8 10v2h2v2l-7-1-8-7-10-12-8-17-6-25-1-7v-29l1-8-10 1 1-4 12-12 2 1 1-4z" fill="#2887A5"/>
<path transform="translate(984,593)" d="m0 0 1 4-5 7-4 4h-2l-2 5-8 8 12-9h3l-2 4-13 13-5 2-6 5-4 2-1 2h-2l-2 4-8 8h-2l-2 4-6 5-38 38-2-4 1-4 39-39 8-7 9-10 12-11 7-8 11-10 7-8z" fill="#192425"/>
<path transform="translate(728,325)" d="m0 0v3l2 4-10 10-7 8-15 15-8 7-29 29-8 7-3 3h-2l2-6 8-7 4-5h2l2-4 5-5h2l1-3h2l2-4 10-10 1-4 23-23 8-7zm-45 38 4 1v3l-21 21-5 3-6 7-6 4h-2l-4 2 6-7 11-10 7-8 12-11z" fill="#2F4C3F"/>
<path transform="translate(1412,563)" d="m0 0 4 1 8 9 3 2 3 8 2 2 4 13 3 10 1 9-1 3-5 1-3-4 2-2-4-5 1-2 1-1-6-9-9-14-2-2-8 1-9 4-4 4-4-2 7-8 9-9 2-5h2l1-3z" fill="#111211"/>
<path transform="translate(1526,554)" d="m0 0 12 3 2 5v10l-3 5-7 8-15 15-9 4-5 3-2-1 6-7 6-12 5-7 8-22z" fill="#1F95BC"/>
<path transform="translate(1538,576)" d="m0 0h2l-2 6-9 14-6 8-8 8-5 4-9 11-11 9-14 15-4 1 6-8 6-10 9-14 2-8 4-5 10-5 7-4 11-11h2l2-4z" fill="#1A9CC7"/>
<path transform="translate(758,287)" d="m0 0 1 3 4 2v3l-3 7-6 5-12 12-2 3h-2v2l-2 1-2 4-5 2-2-1v-3l-13 13-5 3-7 8-14 14-4-3 13-12 59-59z" fill="#2F4A3E"/>
<path transform="translate(1243,383)" d="m0 0 4 2 9 9 5 3 50 50 8 7 30 30v2l4 2 11 11 7 8 13 13 7 8 10 11-1 2-157-157z" fill="#5DAA6A"/>
<path transform="translate(1410,554)" d="m0 0 5 1 9 7 6 7 9 15 7 14 5 13 3 22 1 15 1 4 7 2 2 4-2 4-6 7-7 7-3 1-2-7h3l1-16v-31l-2-11-9-22-9-16-11-13-8-6z" fill="#2988A5"/>
<path transform="translate(1009,931)" d="m0 0 6 1 1 2 1 5 1 4-4 7-11 9-12 9-11 6h-4l3-12 5-6 12-9 7-2 4-1-1-8z" fill="#111211"/>
<path transform="translate(885,693)" d="m0 0 2 3-4 5h-2l-2 4-13 13-7 8-4 6-2 6-1 4 3 4v8h-4l-1 4h-2l3 5 3 3-1 2-7-7-8-7-5-7 9-10 9-11 11-9 7-8 14-14z" fill="#2F575D"/>
<path transform="translate(984,971)" d="m0 0 2 1-5 5h-2l-1 4-10 5-6 2-16 2-9 1-2 2-17-17 4-1 6 1 16 2 21-1 14-3z" fill="#B33133"/>
<path transform="translate(962,628)" d="m0 0v3l-16 16-7 8-13 13h-2l-2 4-13 12-8 8-7 8-2 1v-2h-2l-1 3-7 3-9 11h-2l-1 3-5 1 2-4 13-13 6-7 2 2 35-35h2l2-4 6-5 12-12 1-2h2l2-4 5-2 5-5z" fill="#2E4B3F"/>
<path transform="translate(1061,604)" d="m0 0 11 4 4 8v11l-6 18-5 6 1 2-6 4-2-1 3-4 1-14v-29z" fill="#EECE30"/>
<path transform="translate(619,923)" d="m0 0 4 1 7 6-1 3-7 1-2 2-2 5-5 8-9 5h-9l-3-3 2-5 8-7 8-4 4-4 3 1 1-8z" fill="#070A0B"/>
<path transform="translate(1408,555)" d="m0 0 5 1 8 7 11 14 9 17 7 18 2 11v31l-2 16-4 1 1-13v-35l-2-12-7-19-7-13-10-13-7-7-1-2-4-1z" fill="#2F626F"/>
<path transform="translate(218,454)" d="m0 0 2 2v7l-2 13 3 13 7 20 3 8 9 14 5 5 1 3 12 2 4 1-9 7-5-1-9-12-3-3v-2h-2l-5-9-4-6-7-20-2-7v-27z" fill="#192526"/>
<path transform="translate(228,504)" d="m0 0h1l3 9 2 5 4-2 7 6 14 7 5 7-1 4-7 2-7-1-8-7-9-14-4-7-1-8z" fill="#111211"/>
<path transform="translate(1017,630)" d="m0 0 5 2 11 9 6 8 5 6h7l8-8 2-7h1v12l-5 6-3 2 1 2-14 5-6-4 2-1-3-4-1-5-7-8-2-6-1-4h-2v-2l-4-2z" fill="#1C1A1A"/>
<path transform="translate(221,421)" d="m0 0 1 2-6 22v39l4 14 4 13 4 8 6 10v2h2l1 4 3 1 8 10-3 1-11-11-10-15-6-16-6-26v-29l1-15 3-1v-7z" fill="#2F5C68"/>
<path transform="translate(966,612)" d="m0 0 2 3-7 8-35 35h-2l-2 4-25 25h-2l-2 4-6 5-1-4 40-40 8-7 9-10 12-11 7-8z" fill="#2B443B"/>
<path transform="translate(971,627)" d="m0 0 2 1-8 8-8 7-15 15-5 6-8 7-10 10h-5l-1 3-8 7-8 8-2-1 14-15 8-8 6-5 21-21 4-5 5-3 8-7 4-1 1-2z" fill="#162021"/>
<path transform="translate(660,148)" d="m0 0h6l-2 5-8 17-2 2-1 6-4-2-8-7-1-5 7-7 5-4 5-3z" fill="#141412"/>
<path transform="translate(1409,556)" d="m0 0 3 1-4 1-2 5-8 7-5 5-5 7-1 4h-2l-1 3-7 9-9 11h-2l-2 4-8 9v-3l9-18 4-3h2v-2l3-3 3-7 11-10 7-8 11-11z" fill="#2C2722"/>
<path transform="translate(728,325)" d="m0 0v3l-31 31-1 2h-2l-1 3h-2l-1 3-2-3 24-24 8-7zm-45 38 4 1v3l-21 21-5 3-6 7-6 4h-2l-4 2 6-7 11-10 7-8 12-11z" fill="#253533"/>
<path transform="translate(1181,317)" d="m0 0 3 2v2l4 2 10 11 8 7 2 4 4 2 26 26 7 8 5 5-1 2-4-4-5-3-57-57-2-4z" fill="#3C8A6D"/>
<path transform="translate(890,699)" d="m0 0h2l-2 4-13 13-4 5-10 8-6 7-1 3 6 7-2 6-5 1-1-7-3-4 1-4 4-10 8-8 6-2 1-2h2l2-4 8-9 6-2z" fill="#304E52"/>
<path transform="translate(727,118)" d="m0 0 4 1 6 5 7 6 2 3-19-3-14-2h-16l-13 3-14 8-9 7v-3l11-8 6-4 14-5 3-1h27z" fill="#953431"/>
<path transform="translate(1408,558)" d="m0 0 5 1 9 9 3 4-1 2-9-10-5 1-1 2h-2l-2 6-14 14-8 7-2 1 1-4 3-5h2l1-5 6-8 5-5 7-6z" fill="#1A1919"/>
<path transform="translate(396,402)" d="m0 0 3 1-14 14-7 8-12 11-58 58v-3l9-10 24-24 6-7 8-7 17-17 8-7 15-16z" fill="#616B4B"/>
<path transform="translate(1e3 715)" d="m0 0 3 1-11 12-8 7-7 8-2 2-6 2-2 2-4-1 7-9 12-12h2v-2l15-9z" fill="#2F4744"/>
<path transform="translate(499,963)" d="m0 0 6 1 10 4 1 4 18 2 49 1v-2h5l-4 3-15 2h-35l-13-1-3-1v-2l-5-1-10-5z" fill="#284341"/>
<path transform="translate(227,418)" d="m0 0 2 1v2h2l-1 4-4 9-5 12-1 8h-2l-1 8-1 22h-1v-39l4-16 2-6 5-3z" fill="#34332B"/>
<path transform="translate(296,758)" d="m0 0 4 1 36 36 7 8 10 7 8 12 6 5v2l4 2 12 13 2 4-7-6-19-19-7-8-9-8-7-8-40-40z" fill="#328F9A"/>
<path transform="translate(916,680)" d="m0 0 2 2-17 17-7 8-9 9h-2v2l-8 6-3-1 2-4 9-10 8-8 8-5 12-12z" fill="#253D37"/>
<path transform="translate(735,327)" d="m0 0 2 2-2 5-11 12-20 20-8 7-5 6h-2l-2 4-3 2 2-4 4-6h2l1-3h2l2-4 4-2v-2l5-5 14-15v-3l12-12z" fill="#253D36"/>
<path transform="translate(1093,125)" d="m0 0h21l23 2 8 3v1l-14-1v-2h-36l-16 3-13 5h-2v2l-5 1v2l-12 7-9 7-11 9-2 3 1-5 10-9 10-7 13-9 13-6 13-5z" fill="#2F514C"/>
<path transform="translate(1513,494)" d="m0 0 4 1 9 10 10 15 6 13 2 10v16h-1l-2-7-1-10-1-7-4-5-4-9-7-10-3-3-3-7-5-6z" fill="#2494B3"/>
<path transform="translate(970,745)" d="m0 0 4 1-8 7-7 8-13 13-4 3-1-5 3-7 12-12 6-4 6-2z" fill="#32514E"/>
<path transform="translate(962,628)" d="m0 0v3l-16 16-7 8-13 13h-2l-2 4-4 3v-2l-2-1 10-10 2-4 5-4 12-12 1-2h2l2-4 5-2 5-5z" fill="#2D483F"/>
<path transform="translate(758,287)" d="m0 0 1 3 4 2v3l-3 7-6 5-9 9h-2l2-5 4-5 5-5 2-5-5 5-12 13-7 5 1-5 23-23z" fill="#2F5D60"/>
<path transform="translate(547,850)" d="m0 0 8 6 51 51-3 2-17-17-5-4-7-8-26-26z" fill="#26463F"/>
<path transform="translate(935,783)" d="m0 0v3l-5 5-11 10-8 7-4 5h-3l-1 3-5-1-4-5-1-5 4 2 6-1 7-5h2v-2l8-2 2-4 8-6h2v-2z" fill="#2F5D61"/>
<path transform="translate(1443,671)" d="m0 0 1 3 2 5-5 4-8 11-5 6-8 7-6 7-1-3 2-5h2v-3l4-4 4-6h2l1-3 5-5 4-3 5-10z" fill="#374135"/>
<path transform="translate(314,481)" d="m0 0 3 1-9 10-3 5-12 13-16 16-1-4 5-6 3-2 5-9 8-9h3l5-5 4-5h2v-2z" fill="#2E3730"/>
<path transform="translate(688,365)" d="m0 0v3l-11 11-4 5h-2l-1 3-5 4-1 2h-2l-1 3h-2l-1 3-8 7-5 4v-2l-5 3h-2l-6 7-2 4-4 1-2-1 18-18 5-3 4-1 12-12 5-3z" fill="#1A2728"/>
<path transform="translate(1427,577)" d="m0 0 5 5 8 17 4 12 2 12v35l-1 11-6 10-2 4-2-1 4-10 4-9 1-22v-9l-2-18-3-8-5-15-7-12z" fill="#233"/>
<path transform="translate(944,639)" d="m0 0 4 1h-2l-2 4-8 8h-2l-2 4-6 5-38 38-1-3 36-36v-3l4-1z" fill="#223332"/>
<path transform="translate(936,963)" d="m0 0h2l4 8 5 2 4 3 14 1v1l-21 1-15-5-3-2v-4l8-3z" fill="#301F1C"/>
<path transform="translate(218,454)" d="m0 0 2 2v7l-2 13 3 13 7 20 2 8h-2l-2-5-3-1-5-15-2-7v-27z" fill="#192425"/>
<path transform="translate(510,971)" d="m0 0 4 2 4 1v2l16 1h43l-4 2-21 3h-14l-16-2-10-6z" fill="#3B8E6C"/>
<path transform="translate(680,375)" d="m0 0 3 3-6 7-16 16-8 7-3 3h-2l2-6 8-7 4-5h2l2-4 5-5h2l1-3h2l2-4z" fill="#2A3B3B"/>
<path transform="translate(1063,609)" d="m0 0 2 4 2 12v15l4 1-2 6-4 4 1 2-6 4-2-1 3-4 1-14z" fill="#BCA847"/>
<path transform="translate(1430,584)" d="m0 0 2 1 4 13 3 10 1 9-1 3-5 1-3-4 2-2-4-5 1-2 1-1 1-6-2-12z" fill="#0F1517"/>
<path transform="translate(218,496)" d="m0 0 2 2 4 13 4 8 6 10v2h2l1 4 3 1 8 10-3 1-11-11-10-15-4-10-1-9z" fill="#2F606D"/>
<path transform="translate(935,660)" d="m0 0h2l1 3-10 9-9 9h-5l-1 3-8 7-8 8-2-1 14-15 8-8 9-6z" fill="#182525"/>
<path transform="translate(1326,637)" d="m0 0v3l-4 3 2-4zm-5 6 1 3-23 23h-2v2h-2l-2 4-4 4-5 3-9 9-2-1 14-14 8-7 12-13 12-11z" fill="#6B674B"/>
<path transform="translate(697,127)" d="m0 0h16l14 2 6 5 1 4-5 2-5-1-5-5-6-4-3-1-13-1z" fill="#32201D"/>
<path transform="translate(1443,622)" d="m0 0h1l1 11v16l-1 14-7 15h-1l1-11 3-12 2-19z" fill="#1D292B"/>
<path transform="translate(1432,587)" d="m0 0 3 4 6 17 2 6 1 8-2 26-1 6h-1v-10l-1-1v-28l-3-15-4-10z" fill="#162022"/>
<path transform="translate(1375,588)" d="m0 0 1 3-3 5h-2v2l-4 3h-2l-2 4-8 8h-2l-2 4-5 4-7 8-3 3h-2l-2 4-5 1 40-40 7-8z" fill="#675C41"/>
<path transform="translate(885,693)" d="m0 0 2 3-4 5h-2l-2 4-10 10-4 2-1 3-5 3-4 5h-5l5-5 7-6 7-8 14-14z" fill="#2F5B54"/>
<path transform="translate(1440,599)" d="m0 0 2 3 5 14 1 7v40l-2 7-2 1 1-13v-35l-2-12-3-8z" fill="#2E4E53"/>
<path transform="translate(1440,597)" d="m0 0h2l6 15 2 11v31l-2 16h-2l1-7v-40l-2-10-5-14z" fill="#30697C"/>
<path transform="translate(729,130)" d="m0 0 13 1 6 3 2 6-7 2-9-4-2-4-3-2z" fill="#362520"/>
<path transform="translate(385,847)" d="m0 0 7 6 26 26v2l3 1v2h2l7 8 5 4 5 6 4 3-1 3-34-34-7-8-17-17z" fill="#587150"/>
<path transform="translate(601,448)" d="m0 0 1 4-2 6-1 9-1 26h-1l-3-20-2-4 3-4 2-11-6 5-2-1 8-7z" fill="#B09E4B"/>
<path transform="translate(883,262)" d="m0 0 9 2 7 4 2 5-4 4-8-5-4-4z" fill="#2E595F"/>
<path transform="translate(220,428)" d="m0 0h1v8l-1 4 1 6-1 8h-2l-1 8-1 22h-1v-39l4-16z" fill="#223232"/>
<path transform="translate(213,429)" d="m0 0 3 1v4l-2 1-1 15-2 2v-8l-10 1 1-4 8-8z" fill="#288BA7"/>
<path transform="translate(996,589)" d="m0 0 4 1-4 6-7 8-2-1-5 3-7 5-2-1 5-6h2l2-4 3-2 4-2z" fill="#0F1517"/>
<path transform="translate(712,335)" d="m0 0 2 1-5 5-2 5-19 19-4-3 13-12z" fill="#2F524D"/>
<path transform="translate(918,975)" d="m0 0h8l8 2 18 1h11l-2 2-14 1h-13l-9 2-7-7z" fill="#773831"/>
<path transform="translate(1271,693)" d="m0 0v3l-14 14-5 3 2-4 8-8 8-7zm-20 20m-1 1m-1 1m-1 1m-1 1m-1 1m-1 1m-1 1m-2 1 2 1-13 13v-3zm-13 14m-1 1m-1 1m-1 1m-1 1m-1 1m-1 1m-1 1m-1 1m-2 1 2 1-10 10v-3z" fill="#AC543D"/>
<path transform="translate(956,91)" d="m0 0h2v2l-3 2-2 5-4 3h-2l-1 4-6 3-26 26-2-1z" fill="#379A71"/>
<path transform="translate(604,509)" d="m0 0 3 4 5 10 7 12-5-1-5-4-4-8 1-4h-2l-1-6z" fill="#DBBF36"/>
<path transform="translate(976,612)" d="m0 0h3l-2 4-13 13-5 2-6 5-2-1 18-18z" fill="#202F2F"/>
<path transform="translate(728,325)" d="m0 0v3l-31 31-1 2h-2l-1 3h-2l-1 3-1-4 23-23 8-7z" fill="#263E37"/>
<path transform="translate(737,124)" d="m0 0 7 6 2 3-19-3-14-2-16-1v-1h17l14 1z" fill="#74312C"/>
<path transform="translate(296,758)" d="m0 0 4 1 31 31 4 5-1 2-38-38z" fill="#38A575"/>
<path transform="translate(1409,556)" d="m0 0 3 1-4 1-2 5-8 7-5 5-12 11-5 2 12-12 7-8 11-11z" fill="#38473A"/>
<path transform="translate(683,363)" d="m0 0 2 4-6 7-4 4h-2l-2 4-5 5-5-1 6-7 12-11z" fill="#32473D"/>
<path transform="translate(1381,742)" d="m0 0 4 1-11 9-9 10-7 7-8 7-7 8-1-3 37-37h2z" fill="#606749"/>
<path transform="translate(908,672)" d="m0 0h2l-2 4-11 11h-2l-2 4-6 5-1-4 19-19z" fill="#2E4E44"/>
<path transform="translate(1369,598)" d="m0 0 4 2-1 4-4 5h-2l-2 4-8 9v-3l9-18z" fill="#382520"/>
<path transform="translate(1006,952)" d="m0 0h3l-2 4-13 10-10 6-3-1 5-4h2v-2l6-5 2-2 7-5z" fill="#0B0B0B"/>
<path transform="translate(1057,141)" d="m0 0 2 1-7 5-5 3-6 7-8 7-5 2-2 2 1-5 11-9 12-9z" fill="#152021"/>
<path transform="translate(314,481)" d="m0 0 3 1-9 10-3 5-12 13-2-3 11-13 5-5 2-3h2v-2z" fill="#384236"/>
<path transform="translate(1095,127)" d="m0 0h25l11 1v1l-40 2h-12l4-2z" fill="#1D2E2C"/>
<path transform="translate(906,958)" d="m0 0 2 1v2l5 2 8 7 5 5-6 1-5-3-8-8z" fill="#4B2E26"/>
<path transform="translate(338,459)" d="m0 0h2l-1 4-31 31v-3l9-10 19-19z" fill="#525F49"/>
<path transform="translate(617,43)" d="m0 0h17l7 1-3 2-25 1-8 1h-5l2-2z" fill="#B1523C"/>
<path transform="translate(246,393)" d="m0 0 2 3-7 6-6 8-5 6h-2l-2 5-4 2 1-5 13-15 9-8z" fill="#625D42"/>
<path transform="translate(243,535)" d="m0 0 3 2v2l12 2 4 1-9 7-5-1-2-3-2-7z" fill="#101719"/>
<path transform="translate(946,864)" d="m0 0 4 2 37 37-2 1-5-5-7-5v-2l-3-1-6-8-18-18z" fill="#3A7A60"/>
<path transform="translate(962,628)" d="m0 0v3l-15 15-5 2-7 6-1-2 8-7 4-5h2l2-4 5-2 5-5z" fill="#293C3A"/>
<path transform="translate(617,954)" d="m0 0 3 1-5 3-5 5-14 8-5 2-3-1 3-3 10-4 3-3z" fill="#223735"/>
<path transform="translate(918,962)" d="m0 0 3 1v4l5 2v3l15 5v1l-13-1-2-1v-2l-5-2-5-5v-3z" fill="#392520"/>
<path transform="translate(581,887)" d="m0 0 6 1 19 19-3 2-17-17z" fill="#213835"/>
<path transform="translate(924,654)" d="m0 0 3 1-1 3h-2l-2 4-9 9-7 2 6-7z" fill="#2F4239"/>
<path transform="translate(966,612)" d="m0 0 2 3-7 8-11 11-1-4 16-17z" fill="#2D3D38"/>
<path transform="translate(987,602)" d="m0 0 1 3-5 5-4 3-5 1-9 8-2-1 10-10 9-6z" fill="#172122"/>
<path transform="translate(1539,528)" d="m0 0 2 2 3 13v16h-1l-2-7-1-10-1-7-3-3 1-2z" fill="#3A9CA5"/>
<path transform="translate(648,407)" d="m0 0 1 2-1 2 2 1-5 5-8 7-3 1 1-4 7-8z" fill="#202E2F"/>
<path transform="translate(573,978)" d="m0 0 4 1-7 4-18 1-11-1-1-2h14z" fill="#35A074"/>
<path transform="translate(1394,573)" d="m0 0 1 2v6l-13 14-1-3 4-6h2l1-5z" fill="#23201E"/>
<path transform="translate(993,1048)" d="m0 0 6 1 9 6 10 2 5 2v1h-9l-11-4-10-7z" fill="#B63834"/>
<path transform="translate(218,454)" d="m0 0 2 2v7l-2 12v11l2 7v5l-2-2-2-7v-27z" fill="#1E2D2D"/>
<path transform="translate(221,421)" d="m0 0 1 2-2 6-3 8-2 7-1 12h-2l1-21 3-1v-7z" fill="#2F7079"/>
<path transform="translate(1443,671)" d="m0 0 1 3 2 5-5 4-8 11-1-3 5-9 5-10z" fill="#2F564F"/>
<path transform="translate(680,375)" d="m0 0 3 3-6 7-6 6-4-1 1-3 3-3h2l1-3h2l2-4z" fill="#2A423C"/>
<path transform="translate(735,327)" d="m0 0 2 2-2 5-10 11-2-2 5-7v-3z" fill="#2A433A"/>
<path transform="translate(916,680)" d="m0 0 2 2-18 18-3-1 6-7 8-8z" fill="#223232"/>
<path transform="translate(909,674)" d="m0 0 3 1-24 24-1-3 12-12z" fill="#233B35"/>
<path transform="translate(759,288)" d="m0 0 4 1 7 7 8 11 9 9-1 2-15-15-3-5-5-5-4-3z" fill="#8F854B"/>
<path transform="translate(355,817)" d="m0 0h3l3 5 6 5v2l4 2 12 13 2 4-7-6-19-19z" fill="#4B986A"/>
<path transform="translate(842,737)" d="m0 0 1 2-1 5-5 2 1 3 4 2 2 5 2 4-4-2-9-10 6-8z" fill="#44926C"/>
<path transform="translate(1427,577)" d="m0 0 5 5 8 17 4 12v3l-3-1-5-17-6-12-3-5z" fill="#243736"/>
<path transform="translate(742,314)" d="m0 0 2 3-4 5h-2v2l-2 1-2 4-5 2-2-1v-2h3l2-4z" fill="#304E51"/>
<path transform="translate(984,593)" d="m0 0 1 4-5 7-4 4h-2v2h-2v2l-3 1-2-2 6-5 7-8z" fill="#203630"/>
<path transform="translate(1513,494)" d="m0 0 4 1 9 10 1 5 1 4-7-6-3-7-5-6z" fill="#2397B4"/>
<path transform="translate(922,790)" d="m0 0 4 1-5 4-3 3-6 1v2l-9 6h-2v-2l12-9 5-2z" fill="#304F53"/>
<path transform="translate(1326,637)" d="m0 0v3l-4 3 2-4zm-5 6 1 3-21 21-2-1 11-11 7-8z" fill="#665E42"/>
<path transform="translate(1375,588)" d="m0 0 1 3-3 5h-2v2l-4 3h-2l-2 4-4 4-3-1 11-11 7-8z" fill="#4E5C48"/>
<path transform="translate(1408,558)" d="m0 0 5 1 9 9 3 4-1 2-9-10-12 1 4-5z" fill="#1C2727"/>
<path transform="translate(728,321)" d="m0 0 2 1-14 14-4 5-5 3 2-4 4-4 2-4 7-7 5-3z" fill="#2F5757"/>
<path transform="translate(1063,901)" d="m0 0m-2 1 2 1-7 8-5 5-10 9-7 7-2-1z" fill="#BB543A"/>
<path transform="translate(688,127)" d="m0 0h9v1l-13 3-14 8-9 7v-3l11-8 6-4z" fill="#84322E"/>
<path transform="translate(1427,575)" d="m0 0 6 4 8 15-1 5-2-2-8-16-3-4z" fill="#2F6170"/>
<path transform="translate(1181,317)" d="m0 0 3 2v2l4 2 7 8-1 4-11-11-2-4z" fill="#447160"/>
<path transform="translate(935,783)" d="m0 0v3l-5 5-11 10-3 1v-2h2l2-5 7-6 5-2v-2z" fill="#376D64"/>
<path transform="translate(1443,622)" d="m0 0h1l1 11v16l-2 1-2 10h-1l1-12z" fill="#1B2728"/>
<path transform="translate(228,504)" d="m0 0h1l3 9 4 8 5 9-1 2-7-10-5-9-1-8z" fill="#0F1517"/>
<path transform="translate(268,371)" d="m0 0v3l-5 5-7 9-4 4-5 1 6-7z" fill="#746745"/>
<path transform="translate(435,206)" d="m0 0v3l-4 3-3 5-7 6-3-1 14-14zm-18 17m-2 1 2 1-3 3-2-1z" fill="#B7543A"/>
<path transform="translate(385,847)" d="m0 0 7 6 21 21-1 3-12-13-15-15z" fill="#847B47"/>
<path transform="translate(1304,819)" d="m0 0 2 1-9 11-11 9-3 2 2-4 13-13z" fill="#B14739"/>
<path transform="translate(947,645)" d="m0 0h2l-2 4-23 23-2-1 22-22z" fill="#101618"/>
<path transform="translate(944,639)" d="m0 0 4 1h-2l-2 4-8 8h-2v2l-4-1z" fill="#1F2C2D"/>
<path transform="translate(1021,556)" d="m0 0 2 1-20 20-2 5-4-2z" fill="#25322A"/>
<path transform="translate(743,304)" d="m0 0h2l1 3-7 7-7 5 1-5z" fill="#325C58"/>
<path transform="translate(787,850)" d="m0 0 4 2 12 11 1 3-4-1-13-13z" fill="#305F61"/>
<path transform="translate(914,678)" d="m0 0 2 3h-2l-1 3-8 7-8 8-2-1 14-15z" fill="#1D2A2B"/>
<path transform="translate(1449,654)" d="m0 0h1v15h2v2l2 1-6 5-2-3-1-4h3z" fill="#388690"/>
<path transform="translate(1117,126)" d="m0 0h11l13 2 4 2v1l-14-1v-2h-11z" fill="#2C4E4C"/>
<path transform="translate(480,160)" d="m0 0 1 4-9 8-8 7-4 2 6-7 6-5 7-8z" fill="#B77942"/>
<path transform="translate(499,963)" d="m0 0 6 1 10 4 1 3-12-2z" fill="#21312E"/>
<path transform="translate(635,938)" d="m0 0 1 4-5 6-6 4h-2l2-5 9-7z" fill="#1D2D2C"/>
<path transform="translate(867,711)" d="m0 0 1 4-3 2-1 3-5 3-4 5h-5l5-5 7-6z" fill="#397A67"/>
<path transform="translate(1348,618)" d="m0 0 2 1-10 12-3-1 4-5 5-5zm-12 13m-2 1 2 1-2 1zm-1 2m-1 1m-2 1 2 1-7 6-2-1 4-5z" fill="#61332C"/>
<path transform="translate(1406,571)" d="m0 0h2l-1 5-4 5-3 2h-3l1-4z" fill="#070809"/>
<path transform="translate(688,365)" d="m0 0v3l-11 11-4 5h-2l-1 3-6 4 2-4z" fill="#223232"/>
<path transform="translate(220,428)" d="m0 0h1v8l-4 12-1 9h-1v-12l4-16z" fill="#2C3E40"/>
<path transform="translate(1049,144)" d="m0 0 2 1-13 10-11 9-2 3 1-5 10-9 10-7z" fill="#2E514E"/>
<path transform="translate(585,971)" d="m0 0 4 1-1 1h-5v2h-16l1-2 6-1z" fill="#172122"/>
<path transform="translate(367,825)" d="m0 0 4 3v2l3 1 4 4v3l3 1 4 5-1 2-10-10-5-6-2-1z" fill="#357A7C"/>
<path transform="translate(547,850)" d="m0 0 8 6 7 7-4 1-10-10z" fill="#2A5148"/>
<path transform="translate(323,475)" d="m0 0 1 3-16 16v-3l9-10z" fill="#525441"/>
<path transform="translate(752,430)" d="m0 0 3 4-9 10-2-4 4-3 1-4z" fill="#3F5D48"/>
<path transform="translate(319,320)" d="m0 0 1 3-10 10-7 6-2-1z" fill="#90A859"/>
<path transform="translate(1015,934)" d="m0 0 5 1 1 6-4 6-3 2 2-4 1-5-2-2z" fill="#191A18"/>
<path transform="translate(225,512)" d="m0 0 4 5 6 11 5 6-1 2-3-3v-2h-2l-5-9-4-6z" fill="#243935"/>
<path transform="translate(1470,451)" d="m0 0 4 2 10 9 2 4-8-6-7-4z" fill="#479A9D"/>
<path transform="translate(756,295)" d="m0 0 1 3-6 8h-2l-1 3-2-1 1-4 5-5h2z" fill="#2F4F44"/>
<path transform="translate(617,954)" d="m0 0 3 1-5 3-5 5-8 1 5-4z" fill="#1D2D2C"/>
<path transform="translate(396,402)" d="m0 0 3 1-16 16v-3l11-12z" fill="#6D6C47"/>
<path transform="translate(1076,131)" d="m0 0 3 1-5 3-13 6h-2v-2l5-1v-2z" fill="#1C2B2A"/>
<path transform="translate(874,709)" d="m0 0 4 1-5 6h-2l-1 3-5 1 2-4z" fill="#304E40"/>
<path transform="translate(656,393)" d="m0 0 1 2-5 5-3 2h-2l-4 2 6-7 3-3z" fill="#2C4D3E"/>
<path transform="translate(639,407)" d="m0 0v3l-7 7-1 4-3 2-4-1z" fill="#254F41"/>
<path transform="translate(669,377)" d="m0 0 3 1-2 5-4 4-5-1 6-7z" fill="#43563C"/>
<path transform="translate(876,716)" d="m0 0 2 1 5-1v2l-8 6-3-1 2-4z" fill="#2A433A"/>
<path transform="translate(596,465)" d="m0 0h1v20h-1l-2-12-2-4z" fill="#CFB948"/>
<path transform="translate(712,335)" d="m0 0 2 1-5 5-8 9-3-1z" fill="#354339"/>
<path transform="translate(1065,134)" d="m0 0 4 1-5 1v2l-5 1v2l-8 4v-3z" fill="#2C4D47"/>
<path transform="translate(758,820)" d="m0 0 1 3-13 13-4 1 4-5 8-7z" fill="#499A70"/>
<path transform="translate(886,696)" d="m0 0 2 4-8 7-5 3 2-4 4-5z" fill="#2A443A"/>
<path transform="translate(944,651)" d="m0 0 3 1-6 8-4 2-1-3 3-1 2-4z" fill="#172123"/>
<path transform="translate(1153,291)" d="m0 0 4 3v2h2v2l3 1 5 5v3l-7-6-7-7z" fill="#434B45"/>
<path transform="translate(258,541)" d="m0 0 4 1-9 7-5-1v-2l10-4z" fill="#283B34"/>
<path transform="translate(993,1048)" d="m0 0 6 1 6 4 1 4-11-6z" fill="#B94837"/>
<path transform="translate(1309,654)" d="m0 0 2 1-11 11v-3zm-11 12 2 2-3 1v2l-4 1z" fill="#67774E"/>
<path transform="translate(1389,577)" d="m0 0 2 1-15 15-1-2 1-3 6-4z" fill="#302D26"/>
<path transform="translate(1409,556)" d="m0 0 3 1-4 1-1 3-5 3-6 6-2-1 12-12z" fill="#344944"/>
<path transform="translate(628,163)" d="m0 0 1 3-1 3-7 2-2-1 5-5z" fill="#C72B33"/>
<path transform="translate(737,124)" d="m0 0 5 5h-14l3-3z" fill="#734237"/>
<path transform="translate(1057,657)" d="m0 0 2 1-8 11-2 1v-4l2-1-1-2 4-2-1-2z" fill="#304438"/>
<path transform="translate(987,602)" d="m0 0 1 3-5 5-2 1v-2l-3-1 6-5z" fill="#151D1F"/>
<path transform="translate(259,384)" d="m0 0m-1 1m-1 1m-1 1m-1 1m-1 1m-1 1m-1 1m-3 1 3 1-4 3-1-3zm-3 4 2 1-7 8-2-1z" fill="#61312B"/>
<path transform="translate(450,349)" d="m0 0v3l-7 8-8 7v-3z" fill="#B63934"/>
<path transform="translate(430,893)" d="m0 0 4 2 6 7 4 3-1 3-13-13z" fill="#595C43"/>
<path transform="translate(347,806)" d="m0 0 6 4 4 7-4-1-6-7z" fill="#2D8696"/>
<path transform="translate(1341,782)" d="m0 0 1 3-10 10-2-2 4-5z" fill="#93513A"/>
<path transform="translate(891,687)" d="m0 0h4l-2 4-6 5-1-4z" fill="#2F5349"/>
<path transform="translate(1355,609)" d="m0 0 3 1-3 3h-2l-2 4-5 4-2-1 5-6z" fill="#5F5A42"/>
<path transform="translate(229,411)" d="m0 0 2 1-5 9-4 2 1-5z" fill="#45644F"/>
<path transform="translate(663,388)" d="m0 0 2 1-1 4h-2l-1 3h-2l-1 3-2-4z" fill="#1F2D2E"/>
<path transform="translate(694,353)" d="m0 0 3 1-9 9-1 2-3-3z" fill="#434F3B"/>
<path transform="translate(771,301)" d="m0 0 4 2 7 8 5 5-1 2-15-15z" fill="#827846"/>
<path transform="translate(1137,124)" d="m0 0 6 2 4 5-10-3-9-1v-1l9-1z" fill="#3A866D"/>
<path transform="translate(610,44)" d="m0 0h7l-1 2-9 2h-7l2-2z" fill="#B2583C"/>
<path transform="translate(1440,599)" d="m0 0 2 3 5 14-1 7h-1l-2-12-3-8z" fill="#2E5158"/>
<path transform="translate(1525,507)" d="m0 0 4 2 6 9v2l-4-2-6-10z" fill="#338E9B"/>
<path transform="translate(218,496)" d="m0 0 2 2 4 16v2h-2l-2-5-1-9z" fill="#2F5E6A"/>
<path transform="translate(214,434)" d="m0 0h2l-1 5-1 17h-2l1-21z" fill="#2F7288"/>
<path transform="translate(648,400)" d="m0 0 1 3-8 8h-1v-5z" fill="#1F3430"/>
<path transform="translate(289,350)" d="m0 0 1 4-11 9-2-1z" fill="#7C9F5B"/>
<path transform="translate(734,128)" d="m0 0 9 1 3 4-14-2-1-2z" fill="#6E3A2E"/>
<path transform="translate(1088,229)" d="m0 0 7 1 3 5h-2l-1 2-7-7z" fill="#283730"/>
<path transform="translate(647,157)" d="m0 0 2 1-5 5v4l1 5-4-3-1-5z" fill="#332E20"/>
<path transform="translate(1170,149)" d="m0 0 7 6 1 4v2h-2l-5-7z" fill="#26403C"/>
<path transform="translate(904,813)" d="m0 0 3 1-3 4 1 4 4 4-1 2-7-8v-4z" fill="#5CA970"/>
<path transform="translate(605,443)" d="m0 0 1 2-5 14-1 6h-1v-7l3-11z" fill="#5F5E42"/>
<path transform="translate(894,699)" d="m0 0 3 1-8 7h-2v2h-2l2-4z" fill="#223332"/>
<path transform="translate(902,676)" d="m0 0 2 1-4 5h-2l-1 3h-2l-1 3h-2l2-4z" fill="#323E36"/>
<path transform="translate(961,622)" d="m0 0m-1 1m-1 1m-1 1m-1 1m-1 1m-1 1m-1 1m-1 1m-1 1 2 2-6 6-3-1z" fill="#192627"/>
<path transform="translate(966,612)" d="m0 0 2 3-5 6-3-1 3-5z" fill="#2A3430"/>
<path transform="translate(621,425)" d="m0 0h5l-6 7-4-2z" fill="#203934"/>
<path transform="translate(300,339)" d="m0 0v3l-5 5-4 7h-1v-5z" fill="#7B5C44"/>
<path transform="translate(751,296)" d="m0 0 2 1-2 4-6 5-1-3z" fill="#387D67"/>
<path transform="translate(911,678)" d="m0 0h2l-2 4-7 7-2-1 7-8z" fill="#304E4C"/>
<path transform="translate(845,202)" d="m0 0h3v3h-3l-4 5v4l-4-2 6-8z" fill="#39916F"/>
<path transform="translate(1441,670)" d="m0 0 1 3-5 10-2-1 4-10z" fill="#223231"/>
<path transform="translate(929,654)" d="m0 0m-1 1m-1 1m-4 1 3 1-2 2zm3 0m-3 3m-1 1m-1 1m-1 1m-1 1m-1 1m-1 1m-1 1m-1 1m-1 1m-1 1m-2 1 3 1-1 2h-3z" fill="#233533"/>
<path transform="translate(947,645)" d="m0 0h2l-2 4-7 7-1 2-3-1 8-8z" fill="#11181A"/>
<path transform="translate(996,589)" d="m0 0 4 1-4 6-2 1-1-5z" fill="#101212"/>
<path transform="translate(732,131)" d="m0 0h10l6 3 1 2-9-2-8-2z" fill="#4B3329"/>
<path transform="translate(623,952)" d="m0 0 2 1-8 7-4 1 2-4z" fill="#368368"/>
<path transform="translate(923,673)" d="m0 0 3 1-7 7-3-1 4-5z" fill="#1E2A2C"/>
<path transform="translate(924,654)" d="m0 0 3 1-1 3-3-1-2 4-4 2 2-4z" fill="#2E3A34"/>
<path transform="translate(598,493)" d="m0 0 2 3 3 11h-3l-2-5z" fill="#D8C040"/>
<path transform="translate(601,448)" d="m0 0v3l-2 4h-3l-5 4-2-1 8-7z" fill="#CCB648"/>
<path transform="translate(921,264)" d="m0 0 3 1-12 10v-3z" fill="#389870"/>
<path transform="translate(535,838)" d="m0 0 7 6 3 4-4-1-6-6z" fill="#2D484C"/>
<path transform="translate(945,645)" d="m0 0 1 2-6 7-3-2z" fill="#2C4241"/>
<path transform="translate(974,605)" d="m0 0 3 1-1 2h-2v2h-2v2l-3 1-2-2z" fill="#213131"/>
<path transform="translate(1438,601)" d="m0 0h2l4 10v3l-3-1z" fill="#233635"/>
<path transform="translate(506,969)" d="m0 0 7 1 7 3v2l-7-2-7-3z" fill="#28423C"/>
<path transform="translate(597,901)" d="m0 0 5 2 4 5-3 1-6-6z" fill="#1D2E2C"/>
<path transform="translate(873,705)" d="m0 0v3l-1 4-4 3-1-2 3-5z" fill="#366157"/>
<path transform="translate(1375,588)" d="m0 0 1 3-3 5h-2l-1 2v-5z" fill="#3F5945"/>
<path transform="translate(988,590)" d="m0 0h3l-2 4-4 4-1-3 2-4z" fill="#131F1C"/>
<path transform="translate(1434,586)" d="m0 0 3 3 4 5-1 5-2-2-4-9z" fill="#2E5D68"/>
<path transform="translate(1e3 572)" d="m0 0 2 1-4 4-2 5-4-2z" fill="#1F3F33"/>
<path transform="translate(728,321)" d="m0 0 2 1-6 6-5 3-2-1 5-5 5-3z" fill="#305A56"/>
</svg>
